M48
;DRILL file {KiCad 4.0.7} date 07/07/19 20:21:40
;FORMAT={-:-/ absolute / metric / decimal}
FMAT,2
METRIC,TZ
T1C0.400
T2C0.600
T3C0.762
T4C0.800
T5C1.000
T6C1.300
T7C1.400
T8C1.700
T9C1.900
T10C2.800
T11C2.200
T12C2.800
%
G90
G05
M71
T1
X89.Y-134.55
X89.35Y-143.55
X89.35Y-146.7
X92.2Y-143.85
X93.5Y-138.8
X94.8Y-134.55
X95.6Y-144.6
X97.Y-144.6
X98.6Y-143.4
X98.6Y-144.6
X104.6Y-121.
X104.6Y-143.5
X105.6Y-145.2
X111.8Y-142.55
X113.6Y-143.8
X115.4Y-140.4
X115.4Y-146.
X117.2Y-144.2
X118.6Y-141.75
X122.2Y-144.
X122.75Y-110.95
X123.Y-136.2
X124.Y-129.
X125.Y-135.
X125.2Y-125.2
X127.7Y-122.2
X127.85Y-145.65
X129.4Y-118.
X129.4Y-111.75
X129.8Y-105.
X130.2Y-123.2
X130.206Y-124.35
X131.4Y-107.
X131.8Y-120.2
X131.95Y-105.9
X133.5Y-110.65
X134.Y-147.6
X135.2Y-144.55
X136.3Y-112.7
X136.4Y-145.6
X139.35Y-141.85
X139.6Y-137.6
X139.85Y-143.9
X140.15Y-140.85
X141.35Y-108.65
X141.45Y-142.15
X144.35Y-143.5
X144.8Y-145.
T2
X97.8Y-137.
X99.8Y-135.2
X104.2Y-110.4
X116.6Y-136.
X120.4Y-136.6
X121.6Y-133.2
X122.8Y-119.4
X137.2Y-134.8
X139.4Y-135.2
X143.6Y-133.4
T3
X114.96Y-117.25
X117.5Y-117.25
T4
X90.8Y-132.45
X100.05Y-127.8
X106.6Y-126.
X110.Y-126.
T5
X91.95Y-150.5
X93.95Y-150.5
X95.95Y-150.5
X97.95Y-150.5
X99.95Y-150.5
X101.95Y-150.5
X114.95Y-150.5
X116.95Y-150.5
X118.95Y-150.5
X120.95Y-150.5
X122.95Y-150.5
X124.95Y-150.5
X125.05Y-127.5
X127.05Y-127.5
X129.05Y-127.5
X131.05Y-127.5
X133.05Y-127.5
X135.05Y-127.5
X136.3Y-150.5
X138.3Y-150.5
X140.3Y-150.5
X142.3Y-150.5
X144.3Y-150.5
X146.3Y-150.5
T7
X139.9Y-112.6
X139.9Y-115.8
X139.9Y-124.9
X139.9Y-128.1
X143.Y-110.6
X143.Y-114.2
X143.Y-122.9
X143.Y-126.5
X148.Y-109.7
X148.Y-114.2
X148.Y-119.
X148.Y-122.
X148.Y-126.5
X148.Y-131.3
T8
X91.5Y-110.8
X91.5Y-115.5
X91.5Y-120.2
T9
X107.6Y-152.2
X110.2Y-152.2
T10
X90.25Y-139.5
X113.25Y-139.5
X123.35Y-116.5
X134.6Y-139.5
X136.75Y-116.5
T11
X91.5Y-123.4
X109.5Y-147.5
X129.5Y-147.5
X140.5Y-102.5
T12
X103.65Y-139.5
X126.65Y-139.5
X148.Y-139.5
T6
X114.55Y-110.45G85X114.55Y-111.05
G05
X119.55Y-107.75G85X118.95Y-107.75
G05
X119.55Y-113.75G85X118.95Y-113.75
G05
T0
M30
