G04 #@! TF.FileFunction,Copper,L1,Top,Signal*
%FSLAX46Y46*%
G04 Gerber Fmt 4.6, Leading zero omitted, Abs format (unit mm)*
G04 Created by KiCad (PCBNEW 4.0.7) date 07/07/19 20:21:31*
%MOMM*%
%LPD*%
G01*
G04 APERTURE LIST*
%ADD10C,0.100000*%
%ADD11C,0.300000*%
%ADD12C,2.100000*%
%ADD13C,1.800000*%
%ADD14R,2.500000X4.000000*%
%ADD15R,3.500000X3.500000*%
%ADD16C,2.500000*%
%ADD17C,1.700000*%
%ADD18R,2.800000X3.400000*%
%ADD19C,3.000000*%
%ADD20C,0.600000*%
%ADD21C,1.200000*%
%ADD22C,0.900000*%
%ADD23C,2.000000*%
%ADD24C,0.400000*%
%ADD25C,0.700000*%
%ADD26C,1.000000*%
%ADD27C,1.500000*%
%ADD28C,0.254000*%
G04 APERTURE END LIST*
D10*
D11*
X104550001Y-102228571D02*
X104050001Y-101514286D01*
X103692858Y-102228571D02*
X103692858Y-100728571D01*
X104264286Y-100728571D01*
X104407144Y-100800000D01*
X104478572Y-100871429D01*
X104550001Y-101014286D01*
X104550001Y-101228571D01*
X104478572Y-101371429D01*
X104407144Y-101442857D01*
X104264286Y-101514286D01*
X103692858Y-101514286D01*
X105050001Y-100728571D02*
X105978572Y-100728571D01*
X105478572Y-101300000D01*
X105692858Y-101300000D01*
X105835715Y-101371429D01*
X105907144Y-101442857D01*
X105978572Y-101585714D01*
X105978572Y-101942857D01*
X105907144Y-102085714D01*
X105835715Y-102157143D01*
X105692858Y-102228571D01*
X105264286Y-102228571D01*
X105121429Y-102157143D01*
X105050001Y-102085714D01*
D12*
X110200000Y-152200000D03*
D13*
X117500000Y-117250000D03*
X114960000Y-117250000D03*
D14*
X113000000Y-124300000D03*
X113000000Y-130400000D03*
X103800000Y-130400000D03*
X103800000Y-124300000D03*
D15*
X119250000Y-113750000D03*
X119250000Y-107750000D03*
X114550000Y-110750000D03*
D16*
X148000000Y-131300000D03*
X148000000Y-126500000D03*
X148000000Y-122000000D03*
X143000000Y-122900000D03*
X139900000Y-124900000D03*
X139900000Y-128100000D03*
X143000000Y-126500000D03*
X148000000Y-119000000D03*
X148000000Y-114200000D03*
X148000000Y-109700000D03*
X143000000Y-110600000D03*
X139900000Y-112600000D03*
X139900000Y-115800000D03*
X143000000Y-114200000D03*
D17*
X131050000Y-127500000D03*
X133050000Y-127500000D03*
X135050000Y-127500000D03*
X129050000Y-127500000D03*
X127050000Y-127500000D03*
X125050000Y-127500000D03*
D18*
X136750000Y-116500000D03*
X123350000Y-116500000D03*
D19*
X91500000Y-120200000D03*
X91500000Y-115500000D03*
X91500000Y-110800000D03*
D12*
X107600000Y-152200000D03*
D17*
X97950000Y-150500000D03*
X99950000Y-150500000D03*
X101950000Y-150500000D03*
X95950000Y-150500000D03*
X93950000Y-150500000D03*
X91950000Y-150500000D03*
D18*
X103650000Y-139500000D03*
X90250000Y-139500000D03*
D17*
X120950000Y-150500000D03*
X122950000Y-150500000D03*
X124950000Y-150500000D03*
X118950000Y-150500000D03*
X116950000Y-150500000D03*
X114950000Y-150500000D03*
D18*
X126650000Y-139500000D03*
X113250000Y-139500000D03*
D17*
X142300000Y-150500000D03*
X144300000Y-150500000D03*
X146300000Y-150500000D03*
X140300000Y-150500000D03*
X138300000Y-150500000D03*
X136300000Y-150500000D03*
D18*
X148000000Y-139500000D03*
X134600000Y-139500000D03*
D20*
X140150000Y-140850010D03*
X141450000Y-142150000D03*
X144800000Y-145000000D03*
X134000000Y-147600000D03*
X141350001Y-108649999D03*
X122750000Y-110950000D03*
D21*
X100050000Y-127800000D03*
D20*
X130200000Y-123200000D03*
X125200000Y-125200000D03*
D22*
X122800000Y-119400000D03*
X121600000Y-133200000D03*
X143600000Y-133400000D03*
D21*
X90800000Y-132450000D03*
D20*
X95600000Y-144600000D03*
X98600000Y-143400000D03*
X115400000Y-140400000D03*
X131950000Y-105900000D03*
X130206311Y-124349977D03*
D22*
X137200000Y-134800000D03*
D20*
X97000012Y-144600000D03*
X98600016Y-144600000D03*
X125000000Y-134999990D03*
X124000000Y-129000000D03*
X131800000Y-120200000D03*
D22*
X104200000Y-110400000D03*
D21*
X110000000Y-126000000D03*
D22*
X99799998Y-135200000D03*
X116600000Y-136000000D03*
D20*
X93500000Y-138800000D03*
X129800000Y-105000000D03*
X129400000Y-111750000D03*
X129399998Y-118000000D03*
X89000000Y-134550000D03*
X94800000Y-134550000D03*
X144349990Y-143500000D03*
D22*
X139400000Y-135200000D03*
D20*
X104600000Y-121000000D03*
X123000000Y-136200000D03*
D22*
X97800008Y-137000000D03*
X120400000Y-136600000D03*
D21*
X106600000Y-126000000D03*
D20*
X139600000Y-137600000D03*
X115400000Y-146000000D03*
X92200000Y-143849996D03*
X89350000Y-143550000D03*
X111800000Y-142550000D03*
X118600000Y-141750000D03*
X104600000Y-143500000D03*
X89350000Y-146700000D03*
X105600000Y-145200000D03*
X117200000Y-144200000D03*
X122200000Y-144000000D03*
X133500000Y-110649996D03*
X131400000Y-107000000D03*
X127700000Y-122200000D03*
X136300000Y-112700000D03*
X139350000Y-141850000D03*
X139850000Y-143900000D03*
X135200000Y-144550000D03*
X113600000Y-143800000D03*
X127850000Y-145650000D03*
X136400000Y-145600000D03*
D23*
X91500000Y-120200000D02*
X94600000Y-120200000D01*
X94600000Y-120200000D02*
X98400000Y-116400000D01*
X98400000Y-116400000D02*
X112701998Y-116400000D01*
X112701998Y-116400000D02*
X115351998Y-113750000D01*
X115351998Y-113750000D02*
X115500000Y-113750000D01*
X115500000Y-113750000D02*
X119250000Y-113750000D01*
D24*
X140150010Y-140850010D02*
X140150000Y-140850010D01*
X141450000Y-142150000D02*
X140150010Y-140850010D01*
D25*
X134000000Y-147600000D02*
X142200000Y-147600000D01*
X142200000Y-147600000D02*
X144800000Y-145000000D01*
X141900000Y-108649999D02*
X141350001Y-108649999D01*
D26*
X124100000Y-107537856D02*
X124100000Y-111050000D01*
X124100000Y-111050000D02*
X124100000Y-112889998D01*
D25*
X122750000Y-110950000D02*
X124000000Y-110950000D01*
X124000000Y-110950000D02*
X124100000Y-111050000D01*
D27*
X101050000Y-124300000D02*
X98800000Y-126550000D01*
X98800000Y-126550000D02*
X96800000Y-128550000D01*
X100050000Y-127800000D02*
X98800000Y-126550000D01*
X96800000Y-130600000D02*
X96800000Y-132550000D01*
X96800000Y-132550000D02*
X96800000Y-133800000D01*
X90800000Y-132450000D02*
X96700000Y-132450000D01*
X96700000Y-132450000D02*
X96800000Y-132550000D01*
D26*
X124100000Y-107537856D02*
X123739998Y-107537856D01*
X123739998Y-107537856D02*
X123300000Y-107097858D01*
X123300000Y-107097858D02*
X123300000Y-104177854D01*
X136750000Y-103499999D02*
X141900000Y-108649999D01*
X123300000Y-104177854D02*
X123977855Y-103499999D01*
X123977855Y-103499999D02*
X136750000Y-103499999D01*
D25*
X124337856Y-107300000D02*
X124100000Y-107537856D01*
D26*
X141900000Y-108649999D02*
X143800000Y-108649999D01*
X143800000Y-108649999D02*
X143850001Y-108700000D01*
X124100000Y-112889998D02*
X126800000Y-115589998D01*
X126800000Y-115589998D02*
X126800000Y-117410002D01*
D25*
X144950001Y-109800000D02*
X143850001Y-108700000D01*
X144950001Y-109750001D02*
X144950001Y-109800000D01*
D26*
X124100000Y-107537856D02*
X123800000Y-107537856D01*
D24*
X126000000Y-123200000D02*
X130200000Y-123200000D01*
D25*
X97200000Y-143400000D02*
X96375736Y-143400000D01*
X96375736Y-143400000D02*
X95600000Y-144175736D01*
X95600000Y-144175736D02*
X95600000Y-144600000D01*
X125200000Y-124775736D02*
X125200000Y-125200000D01*
X126000000Y-123200000D02*
X125200000Y-124000000D01*
X125200000Y-124000000D02*
X125200000Y-124775736D01*
D26*
X144950001Y-109800000D02*
X144950001Y-115950001D01*
D25*
X126000000Y-123200000D02*
X126000000Y-118589998D01*
D26*
X126800000Y-117410002D02*
X125810002Y-118400000D01*
X125810002Y-118400000D02*
X124810002Y-119400000D01*
D25*
X126000000Y-118589998D02*
X125810002Y-118400000D01*
D26*
X124810002Y-119400000D02*
X122800000Y-119400000D01*
X144950001Y-115950001D02*
X146750001Y-117750001D01*
X146750001Y-117750001D02*
X148000000Y-119000000D01*
D27*
X103800000Y-124300000D02*
X101050000Y-124300000D01*
X96800000Y-128550000D02*
X96800000Y-130600000D01*
X113000000Y-124300000D02*
X115100000Y-124300000D01*
X115100000Y-124300000D02*
X116800000Y-126000000D01*
X117800000Y-133200000D02*
X121400000Y-133200000D01*
X116800000Y-126000000D02*
X116800000Y-132200000D01*
X116800000Y-132200000D02*
X117800000Y-133200000D01*
X103800000Y-124300000D02*
X104200000Y-123900000D01*
X104200000Y-123600000D02*
X104400000Y-123400000D01*
X104200000Y-123900000D02*
X104200000Y-123600000D01*
X104400000Y-123400000D02*
X112600000Y-123400000D01*
X112600000Y-123400000D02*
X112800000Y-123600000D01*
X112800000Y-123600000D02*
X112800000Y-124100000D01*
X112800000Y-124100000D02*
X113000000Y-124300000D01*
X96800000Y-133800000D02*
X96800000Y-135800000D01*
X96850010Y-133749990D02*
X96800000Y-133800000D01*
D26*
X96600000Y-136200000D02*
X96600000Y-136000000D01*
X96600000Y-136000000D02*
X96800000Y-135800000D01*
D25*
X97200000Y-143400000D02*
X96600000Y-142800000D01*
X96600000Y-142800000D02*
X96600000Y-136200000D01*
D27*
X121400000Y-133200000D02*
X121600000Y-133200000D01*
X121400000Y-133200000D02*
X122200000Y-133200000D01*
X122200000Y-133200000D02*
X146100000Y-133200000D01*
D25*
X143600000Y-133400000D02*
X144049999Y-132950001D01*
X144049999Y-132950001D02*
X145850001Y-132950001D01*
X145850001Y-132950001D02*
X146100000Y-133200000D01*
D27*
X146100000Y-133200000D02*
X146300000Y-133000000D01*
X146300000Y-133000000D02*
X148000000Y-131300000D01*
D25*
X98600000Y-143400000D02*
X97200000Y-143400000D01*
X132249999Y-106199999D02*
X131950000Y-105900000D01*
X132400000Y-106350000D02*
X132249999Y-106199999D01*
X132400000Y-120200000D02*
X132400000Y-106350000D01*
D24*
X129782047Y-124349977D02*
X130206311Y-124349977D01*
X126849990Y-125950010D02*
X128450023Y-124349977D01*
X132400000Y-122324264D02*
X132232025Y-122324264D01*
X123700001Y-128700001D02*
X123700001Y-126099999D01*
X123700001Y-126099999D02*
X123849990Y-125950010D01*
X123849990Y-125950010D02*
X126849990Y-125950010D01*
X132232025Y-122324264D02*
X130506310Y-124049978D01*
X128450023Y-124349977D02*
X129782047Y-124349977D01*
X130506310Y-124049978D02*
X130206311Y-124349977D01*
X124000000Y-129000000D02*
X123700001Y-128700001D01*
D26*
X137000010Y-134999990D02*
X137200000Y-134800000D01*
X125000000Y-134999990D02*
X137000010Y-134999990D01*
D24*
X98600016Y-144600000D02*
X97000012Y-144600000D01*
D26*
X120000010Y-134999990D02*
X125000000Y-134999990D01*
D25*
X132400000Y-122324264D02*
X132400000Y-120200000D01*
X131800000Y-120200000D02*
X132400000Y-120200000D01*
D27*
X104200000Y-110400000D02*
X106850000Y-107750000D01*
X106850000Y-107750000D02*
X119250000Y-107750000D01*
D23*
X110000000Y-126000000D02*
X110000000Y-127600000D01*
X112800000Y-130400000D02*
X113000000Y-130400000D01*
X110000000Y-127600000D02*
X112800000Y-130400000D01*
D26*
X116399990Y-135200000D02*
X113000000Y-135200000D01*
X113000000Y-135200000D02*
X100436394Y-135200000D01*
D27*
X113000000Y-130400000D02*
X113000000Y-135200000D01*
D26*
X100436394Y-135200000D02*
X99799998Y-135200000D01*
X116600000Y-134999990D02*
X116399990Y-135200000D01*
X116600000Y-134999990D02*
X116600000Y-136000000D01*
X119200010Y-134999990D02*
X116600000Y-134999990D01*
X119200010Y-134999990D02*
X120000010Y-134999990D01*
D25*
X94800000Y-134550000D02*
X93500000Y-134550000D01*
X93500000Y-134550000D02*
X89000000Y-134550000D01*
X93500000Y-138800000D02*
X93500000Y-138375736D01*
X93500000Y-138375736D02*
X93500000Y-134550000D01*
X129500001Y-105299999D02*
X129800000Y-105000000D01*
X129399998Y-105400002D02*
X129500001Y-105299999D01*
X129399998Y-112750000D02*
X129399998Y-105400002D01*
X129399998Y-112750000D02*
X129399998Y-112200000D01*
X129399998Y-118000000D02*
X129399998Y-112750000D01*
X129399998Y-112200000D02*
X129399998Y-111750002D01*
X129399998Y-111750002D02*
X129400000Y-111750000D01*
X144349990Y-142349990D02*
X144349990Y-143075736D01*
X139600000Y-137600000D02*
X144349990Y-142349990D01*
X144349990Y-143075736D02*
X144349990Y-143500000D01*
X139600000Y-137600000D02*
X138400000Y-136400000D01*
X138400000Y-136400000D02*
X138400000Y-136200000D01*
D26*
X138950001Y-135649999D02*
X139400000Y-135200000D01*
X123000000Y-136200000D02*
X138400000Y-136200000D01*
X138400000Y-136200000D02*
X138950001Y-135649999D01*
X99450000Y-121000000D02*
X104600000Y-121000000D01*
X120800000Y-136200000D02*
X123000000Y-136200000D01*
X99000000Y-137000000D02*
X97800008Y-137000000D01*
X102600000Y-137000000D02*
X99000000Y-137000000D01*
X101550000Y-130400000D02*
X103800000Y-130400000D01*
X99000000Y-137000000D02*
X98599988Y-136599988D01*
X98599988Y-136599988D02*
X98599988Y-133350012D01*
X98599988Y-133350012D02*
X101550000Y-130400000D01*
X115110002Y-137000000D02*
X98436404Y-137000000D01*
X115310012Y-137200010D02*
X115110002Y-137000000D01*
X98436404Y-137000000D02*
X97800008Y-137000000D01*
X119799990Y-137200010D02*
X115310012Y-137200010D01*
X120400000Y-136600000D02*
X119799990Y-137200010D01*
X120400000Y-136600000D02*
X120800000Y-136200000D01*
D23*
X106600000Y-126000000D02*
X106600000Y-127600000D01*
X106600000Y-127600000D02*
X103800000Y-130400000D01*
D27*
X148000000Y-109700000D02*
X150200001Y-111900001D01*
X150200001Y-111900001D02*
X150200001Y-121567765D01*
X150200001Y-121567765D02*
X149767766Y-122000000D01*
X149767766Y-122000000D02*
X148000000Y-122000000D01*
D25*
X115400000Y-146000000D02*
X120100000Y-146000000D01*
X120100000Y-146000000D02*
X122950000Y-148850000D01*
X122950000Y-148850000D02*
X122950000Y-150500000D01*
X89350000Y-143550000D02*
X91900004Y-143550000D01*
X91900004Y-143550000D02*
X92200000Y-143849996D01*
D26*
X115280001Y-142000001D02*
X111750000Y-142000001D01*
X111750000Y-142000001D02*
X106099999Y-142000001D01*
D25*
X111800000Y-142550000D02*
X111800000Y-142050001D01*
X111800000Y-142050001D02*
X111750000Y-142000001D01*
X115280001Y-142000001D02*
X115492133Y-142000001D01*
X115492133Y-142000001D02*
X115742134Y-141750000D01*
X115742134Y-141750000D02*
X118600000Y-141750000D01*
D26*
X104899999Y-143200001D02*
X104600000Y-143500000D01*
X106099999Y-142000001D02*
X104899999Y-143200001D01*
X113997060Y-145300011D02*
X106300009Y-145300011D01*
X114397060Y-144900011D02*
X113997060Y-145300011D01*
X106300009Y-145300011D02*
X105899999Y-144900001D01*
X116499989Y-144900011D02*
X114397060Y-144900011D01*
X117200000Y-144200000D02*
X116499989Y-144900011D01*
X89350000Y-146700000D02*
X104100000Y-146700000D01*
X104100000Y-146700000D02*
X105899999Y-144900001D01*
X105899999Y-144900001D02*
X105600000Y-145200000D01*
D25*
X122200000Y-144000000D02*
X117400000Y-144000000D01*
X117400000Y-144000000D02*
X117200000Y-144200000D01*
X133500000Y-111074260D02*
X133500000Y-110649996D01*
X133500000Y-123050000D02*
X133500000Y-111074260D01*
X129050000Y-127500000D02*
X133500000Y-123050000D01*
D24*
X131400000Y-110900000D02*
X131400000Y-107000000D01*
X131400000Y-113600000D02*
X131400000Y-110900000D01*
D25*
X131400000Y-118500000D02*
X131400000Y-113600000D01*
X127700000Y-122200000D02*
X131400000Y-118500000D01*
X138450000Y-110600000D02*
X138400000Y-110600000D01*
X138400000Y-110600000D02*
X136300000Y-112700000D01*
X138450000Y-110600000D02*
X143000000Y-110600000D01*
X142600000Y-110200000D02*
X143000000Y-110600000D01*
X143000000Y-110600000D02*
X143000000Y-110337856D01*
X139350000Y-142274264D02*
X139350000Y-141850000D01*
X139350000Y-143819975D02*
X139350000Y-142274264D01*
X139380025Y-143850000D02*
X139350000Y-143819975D01*
D26*
X116177049Y-142800023D02*
X135200000Y-142800023D01*
X135200000Y-144550000D02*
X135200000Y-144125736D01*
X135200000Y-144125736D02*
X135200000Y-142800023D01*
X115577060Y-143400012D02*
X116177049Y-142800023D01*
X114700000Y-143400012D02*
X115577060Y-143400012D01*
D25*
X139380025Y-143854289D02*
X139425736Y-143900000D01*
X139425736Y-143900000D02*
X139850000Y-143900000D01*
X139380025Y-144319975D02*
X139380025Y-143850000D01*
D24*
X139380025Y-143854289D02*
X139380025Y-143850000D01*
D25*
X139150000Y-144550000D02*
X139380025Y-144319975D01*
X135200000Y-144550000D02*
X139150000Y-144550000D01*
D26*
X113999988Y-143400012D02*
X113899999Y-143500001D01*
X114700000Y-143400012D02*
X113999988Y-143400012D01*
X113899999Y-143500001D02*
X113600000Y-143800000D01*
X115577061Y-143400012D02*
X114700000Y-143400012D01*
D25*
X136400000Y-145600000D02*
X127900000Y-145600000D01*
X127900000Y-145600000D02*
X127850000Y-145650000D01*
D28*
G36*
X102700715Y-103535000D02*
X106899286Y-103535000D01*
X106899286Y-102211593D01*
X138754677Y-102211593D01*
X138764975Y-102527507D01*
X138764699Y-102843599D01*
X138776184Y-102871395D01*
X138777164Y-102901453D01*
X138997901Y-103434359D01*
X139010954Y-103439581D01*
X139028281Y-103481515D01*
X139515918Y-103970004D01*
X139560149Y-103988370D01*
X139565641Y-104002099D01*
X139861448Y-104113481D01*
X140153373Y-104234699D01*
X140183448Y-104234725D01*
X140211593Y-104245323D01*
X140527507Y-104235025D01*
X140843599Y-104235301D01*
X140871395Y-104223816D01*
X140901453Y-104222836D01*
X141434359Y-104002099D01*
X141439581Y-103989046D01*
X141481515Y-103971719D01*
X141970004Y-103484082D01*
X141988370Y-103439851D01*
X142002099Y-103434359D01*
X142113481Y-103138552D01*
X142234699Y-102846627D01*
X142234725Y-102816552D01*
X142245323Y-102788407D01*
X142235025Y-102472493D01*
X142235301Y-102156401D01*
X142223816Y-102128605D01*
X142222836Y-102098547D01*
X142002099Y-101565641D01*
X141989046Y-101560419D01*
X141971719Y-101518485D01*
X141484082Y-101029996D01*
X141439851Y-101011630D01*
X141434359Y-100997901D01*
X141138552Y-100886519D01*
X140846627Y-100765301D01*
X140816552Y-100765275D01*
X140788407Y-100754677D01*
X140472493Y-100764975D01*
X140156401Y-100764699D01*
X140128605Y-100776184D01*
X140098547Y-100777164D01*
X139565641Y-100997901D01*
X139560419Y-101010954D01*
X139518485Y-101028281D01*
X139029996Y-101515918D01*
X139011630Y-101560149D01*
X138997901Y-101565641D01*
X138886519Y-101861448D01*
X138765301Y-102153373D01*
X138765275Y-102183448D01*
X138754677Y-102211593D01*
X106899286Y-102211593D01*
X106899286Y-100710000D01*
X141689140Y-100710000D01*
X142490000Y-101577598D01*
X142490000Y-107514999D01*
X142370132Y-107514999D01*
X137552566Y-102697433D01*
X137184346Y-102451396D01*
X136750000Y-102364999D01*
X123977855Y-102364999D01*
X123543509Y-102451396D01*
X123175289Y-102697433D01*
X122497434Y-103375288D01*
X122251397Y-103743508D01*
X122165000Y-104177854D01*
X122165000Y-107097858D01*
X122251397Y-107532204D01*
X122396924Y-107750000D01*
X122497434Y-107900424D01*
X122937432Y-108340422D01*
X122965000Y-108358842D01*
X122965000Y-109965000D01*
X122750000Y-109965000D01*
X122373057Y-110039979D01*
X122053500Y-110253500D01*
X121839979Y-110573057D01*
X121765000Y-110950000D01*
X121839979Y-111326943D01*
X122053500Y-111646500D01*
X122373057Y-111860021D01*
X122750000Y-111935000D01*
X122965000Y-111935000D01*
X122965000Y-112889998D01*
X123051397Y-113324344D01*
X123251933Y-113624467D01*
X123297434Y-113692564D01*
X123757430Y-114152560D01*
X121950000Y-114152560D01*
X121883887Y-114165000D01*
X121823691Y-114165000D01*
X121773584Y-114185755D01*
X121714683Y-114196838D01*
X121656609Y-114234208D01*
X121647440Y-114238006D01*
X121647440Y-112000000D01*
X121603162Y-111764683D01*
X121464090Y-111548559D01*
X121251890Y-111403569D01*
X121000000Y-111352560D01*
X117500000Y-111352560D01*
X117264683Y-111396838D01*
X117048559Y-111535910D01*
X116947440Y-111683903D01*
X116947440Y-109813955D01*
X117035910Y-109951441D01*
X117248110Y-110096431D01*
X117500000Y-110147440D01*
X121000000Y-110147440D01*
X121235317Y-110103162D01*
X121451441Y-109964090D01*
X121596431Y-109751890D01*
X121647440Y-109500000D01*
X121647440Y-106000000D01*
X121603162Y-105764683D01*
X121464090Y-105548559D01*
X121251890Y-105403569D01*
X121000000Y-105352560D01*
X117500000Y-105352560D01*
X117264683Y-105396838D01*
X117048559Y-105535910D01*
X116903569Y-105748110D01*
X116852560Y-106000000D01*
X116852560Y-106365000D01*
X106850000Y-106365000D01*
X106319983Y-106470427D01*
X105870657Y-106770657D01*
X103220657Y-109420657D01*
X102920427Y-109869984D01*
X102815000Y-110400000D01*
X102920427Y-110930016D01*
X103220657Y-111379343D01*
X103669984Y-111679573D01*
X104200000Y-111785000D01*
X104730016Y-111679573D01*
X105179343Y-111379343D01*
X107423686Y-109135000D01*
X112152560Y-109135000D01*
X112152560Y-112500000D01*
X112196838Y-112735317D01*
X112335910Y-112951441D01*
X112548110Y-113096431D01*
X112800000Y-113147440D01*
X113642318Y-113147440D01*
X112024758Y-114765000D01*
X98400005Y-114765000D01*
X98400000Y-114764999D01*
X97774313Y-114889457D01*
X97243880Y-115243880D01*
X97243878Y-115243883D01*
X93922760Y-118565000D01*
X92884565Y-118565000D01*
X92710959Y-118391091D01*
X91926541Y-118065372D01*
X91077185Y-118064630D01*
X90292200Y-118388980D01*
X89691091Y-118989041D01*
X89365372Y-119773459D01*
X89364630Y-120622815D01*
X89688980Y-121407800D01*
X90289041Y-122008909D01*
X90394040Y-122052509D01*
X90029996Y-122415918D01*
X89765301Y-123053373D01*
X89764699Y-123743599D01*
X90028281Y-124381515D01*
X90515918Y-124870004D01*
X91153373Y-125134699D01*
X91843599Y-125135301D01*
X92481515Y-124871719D01*
X92970004Y-124384082D01*
X93234699Y-123746627D01*
X93235301Y-123056401D01*
X92971719Y-122418485D01*
X92606676Y-122052804D01*
X92707800Y-122011020D01*
X92884127Y-121835000D01*
X94599995Y-121835000D01*
X94600000Y-121835001D01*
X95225688Y-121710543D01*
X95756120Y-121356120D01*
X99077239Y-118035000D01*
X112701993Y-118035000D01*
X112701998Y-118035001D01*
X113327686Y-117910543D01*
X113519188Y-117782585D01*
X113657932Y-118118371D01*
X114089357Y-118550551D01*
X114653330Y-118784733D01*
X115263991Y-118785265D01*
X115828371Y-118552068D01*
X116230323Y-118150818D01*
X116629357Y-118550551D01*
X117193330Y-118784733D01*
X117803991Y-118785265D01*
X118368371Y-118552068D01*
X118800551Y-118120643D01*
X119034733Y-117556670D01*
X119035265Y-116946009D01*
X118802068Y-116381629D01*
X118568288Y-116147440D01*
X121000000Y-116147440D01*
X121235317Y-116103162D01*
X121302560Y-116059892D01*
X121302560Y-118200000D01*
X121315000Y-118266113D01*
X121315000Y-118326310D01*
X121335755Y-118376418D01*
X121346838Y-118435317D01*
X121384207Y-118493390D01*
X121411673Y-118559699D01*
X121454315Y-118602340D01*
X121485910Y-118651441D01*
X121541180Y-118689206D01*
X121590302Y-118738327D01*
X121648126Y-118762279D01*
X121698110Y-118796431D01*
X121761633Y-118809295D01*
X121823691Y-118835000D01*
X121838697Y-118835000D01*
X121751397Y-118965654D01*
X121665000Y-119400000D01*
X121751397Y-119834346D01*
X121997434Y-120202566D01*
X122365654Y-120448603D01*
X122800000Y-120535000D01*
X124810002Y-120535000D01*
X125015000Y-120494223D01*
X125015000Y-122792000D01*
X124503500Y-123303500D01*
X124289979Y-123623057D01*
X124215000Y-124000000D01*
X124215000Y-125115010D01*
X123849990Y-125115010D01*
X123530449Y-125178571D01*
X123401100Y-125264999D01*
X123259555Y-125359576D01*
X123109567Y-125509565D01*
X122928562Y-125780458D01*
X122865001Y-126099999D01*
X122865001Y-128700001D01*
X122928562Y-129019542D01*
X123078460Y-129243880D01*
X123106335Y-129285598D01*
X123206883Y-129528943D01*
X123469673Y-129792192D01*
X123813201Y-129934838D01*
X124185167Y-129935162D01*
X124528943Y-129793117D01*
X124792192Y-129530327D01*
X124934838Y-129186799D01*
X124935014Y-128984900D01*
X125344089Y-128985257D01*
X125890086Y-128759656D01*
X126049913Y-128600108D01*
X126207717Y-128758188D01*
X126753319Y-128984742D01*
X127344089Y-128985257D01*
X127890086Y-128759656D01*
X128049913Y-128600108D01*
X128207717Y-128758188D01*
X128753319Y-128984742D01*
X129344089Y-128985257D01*
X129890086Y-128759656D01*
X130049913Y-128600108D01*
X130207717Y-128758188D01*
X130753319Y-128984742D01*
X131344089Y-128985257D01*
X131890086Y-128759656D01*
X132049913Y-128600108D01*
X132207717Y-128758188D01*
X132753319Y-128984742D01*
X133344089Y-128985257D01*
X133890086Y-128759656D01*
X134049913Y-128600108D01*
X134207717Y-128758188D01*
X134753319Y-128984742D01*
X135344089Y-128985257D01*
X135890086Y-128759656D01*
X136308188Y-128342283D01*
X136534742Y-127796681D01*
X136535257Y-127205911D01*
X136309656Y-126659914D01*
X135892283Y-126241812D01*
X135346681Y-126015258D01*
X134755911Y-126014743D01*
X134209914Y-126240344D01*
X134050087Y-126399892D01*
X133892283Y-126241812D01*
X133346681Y-126015258D01*
X132755911Y-126014743D01*
X132209914Y-126240344D01*
X132050087Y-126399892D01*
X131892283Y-126241812D01*
X131757256Y-126185744D01*
X133367194Y-124575806D01*
X138005612Y-124575806D01*
X138014978Y-124924460D01*
X138014674Y-125273305D01*
X138025022Y-125298350D01*
X138025750Y-125325435D01*
X138273877Y-125924467D01*
X138285926Y-125929786D01*
X138301043Y-125966372D01*
X138830839Y-126497093D01*
X138836998Y-126499650D01*
X138833628Y-126501043D01*
X138302907Y-127030839D01*
X138015328Y-127723405D01*
X138014674Y-128473305D01*
X138301043Y-129166372D01*
X138830839Y-129697093D01*
X139523405Y-129984672D01*
X140273305Y-129985326D01*
X140966372Y-129698957D01*
X141497093Y-129169161D01*
X141784672Y-128476595D01*
X141785130Y-127951130D01*
X141930839Y-128097093D01*
X141969873Y-128113302D01*
X141975533Y-128126123D01*
X142301231Y-128250893D01*
X142623405Y-128384672D01*
X142650505Y-128384696D01*
X142675806Y-128394388D01*
X143024460Y-128385022D01*
X143373305Y-128385326D01*
X143398350Y-128374978D01*
X143425435Y-128374250D01*
X144024467Y-128126123D01*
X144029786Y-128114074D01*
X144066372Y-128098957D01*
X144597093Y-127569161D01*
X144613302Y-127530127D01*
X144626123Y-127524467D01*
X144750893Y-127198769D01*
X144884672Y-126876595D01*
X144884696Y-126849495D01*
X144894388Y-126824194D01*
X144885022Y-126475540D01*
X144885283Y-126175806D01*
X146105612Y-126175806D01*
X146114978Y-126524460D01*
X146114674Y-126873305D01*
X146125022Y-126898350D01*
X146125750Y-126925435D01*
X146373877Y-127524467D01*
X146385926Y-127529786D01*
X146401043Y-127566372D01*
X146930839Y-128097093D01*
X146969873Y-128113302D01*
X146975533Y-128126123D01*
X147301231Y-128250893D01*
X147623405Y-128384672D01*
X147650505Y-128384696D01*
X147675806Y-128394388D01*
X148024460Y-128385022D01*
X148373305Y-128385326D01*
X148398350Y-128374978D01*
X148425435Y-128374250D01*
X149024467Y-128126123D01*
X149029786Y-128114074D01*
X149066372Y-128098957D01*
X149597093Y-127569161D01*
X149613302Y-127530127D01*
X149626123Y-127524467D01*
X149750893Y-127198769D01*
X149884672Y-126876595D01*
X149884696Y-126849495D01*
X149894388Y-126824194D01*
X149885022Y-126475540D01*
X149885326Y-126126695D01*
X149874978Y-126101650D01*
X149874250Y-126074565D01*
X149626123Y-125475533D01*
X149614074Y-125470214D01*
X149598957Y-125433628D01*
X149069161Y-124902907D01*
X149030127Y-124886698D01*
X149024467Y-124873877D01*
X148698769Y-124749107D01*
X148376595Y-124615328D01*
X148349495Y-124615304D01*
X148324194Y-124605612D01*
X147975540Y-124614978D01*
X147626695Y-124614674D01*
X147601650Y-124625022D01*
X147574565Y-124625750D01*
X146975533Y-124873877D01*
X146970214Y-124885926D01*
X146933628Y-124901043D01*
X146402907Y-125430839D01*
X146386698Y-125469873D01*
X146373877Y-125475533D01*
X146249107Y-125801231D01*
X146115328Y-126123405D01*
X146115304Y-126150505D01*
X146105612Y-126175806D01*
X144885283Y-126175806D01*
X144885326Y-126126695D01*
X144874978Y-126101650D01*
X144874250Y-126074565D01*
X144626123Y-125475533D01*
X144614074Y-125470214D01*
X144598957Y-125433628D01*
X144069161Y-124902907D01*
X144030127Y-124886698D01*
X144024467Y-124873877D01*
X143698769Y-124749107D01*
X143580160Y-124699856D01*
X144066372Y-124498957D01*
X144597093Y-123969161D01*
X144884672Y-123276595D01*
X144885326Y-122526695D01*
X144598957Y-121833628D01*
X144069161Y-121302907D01*
X143376595Y-121015328D01*
X142626695Y-121014674D01*
X141933628Y-121301043D01*
X141402907Y-121830839D01*
X141115328Y-122523405D01*
X141114674Y-123273305D01*
X141238309Y-123572525D01*
X140969161Y-123302907D01*
X140930127Y-123286698D01*
X140924467Y-123273877D01*
X140598769Y-123149107D01*
X140276595Y-123015328D01*
X140249495Y-123015304D01*
X140224194Y-123005612D01*
X139875540Y-123014978D01*
X139526695Y-123014674D01*
X139501650Y-123025022D01*
X139474565Y-123025750D01*
X138875533Y-123273877D01*
X138870214Y-123285926D01*
X138833628Y-123301043D01*
X138302907Y-123830839D01*
X138286698Y-123869873D01*
X138273877Y-123875533D01*
X138149107Y-124201231D01*
X138015328Y-124523405D01*
X138015304Y-124550505D01*
X138005612Y-124575806D01*
X133367194Y-124575806D01*
X134196500Y-123746500D01*
X134410021Y-123426943D01*
X134421351Y-123369984D01*
X134485000Y-123050000D01*
X134485000Y-110649996D01*
X134410021Y-110273053D01*
X134196500Y-109953496D01*
X133876943Y-109739975D01*
X133500000Y-109664996D01*
X133385000Y-109687871D01*
X133385000Y-106350000D01*
X133310021Y-105973057D01*
X133096500Y-105653500D01*
X132646500Y-105203500D01*
X132326943Y-104989979D01*
X131950000Y-104915000D01*
X131573057Y-104989979D01*
X131253500Y-105203500D01*
X131039979Y-105523057D01*
X130965000Y-105900000D01*
X131014272Y-106147708D01*
X130871057Y-106206883D01*
X130607808Y-106469673D01*
X130465162Y-106813201D01*
X130464838Y-107185167D01*
X130565000Y-107427578D01*
X130565000Y-113110780D01*
X130489979Y-113223057D01*
X130415000Y-113600000D01*
X130415000Y-118092000D01*
X130354704Y-118152296D01*
X130384998Y-118000000D01*
X130384998Y-111750010D01*
X130385000Y-111750000D01*
X130384998Y-111749990D01*
X130384998Y-105808002D01*
X130496500Y-105696500D01*
X130710021Y-105376943D01*
X130785000Y-105000000D01*
X130712396Y-104634999D01*
X136279868Y-104634999D01*
X140382415Y-108737546D01*
X140439980Y-109026942D01*
X140653501Y-109346499D01*
X140973058Y-109560020D01*
X141249460Y-109615000D01*
X138400000Y-109615000D01*
X138023057Y-109689979D01*
X137703499Y-109903500D01*
X135603500Y-112003500D01*
X135389979Y-112323057D01*
X135315000Y-112700000D01*
X135389979Y-113076943D01*
X135603500Y-113396500D01*
X135923057Y-113610021D01*
X136300000Y-113685000D01*
X136676943Y-113610021D01*
X136996500Y-113396500D01*
X138008531Y-112384469D01*
X138014978Y-112624460D01*
X138014674Y-112973305D01*
X138025022Y-112998350D01*
X138025750Y-113025435D01*
X138273877Y-113624467D01*
X138285926Y-113629786D01*
X138301043Y-113666372D01*
X138830839Y-114197093D01*
X138836998Y-114199650D01*
X138833628Y-114201043D01*
X138642159Y-114392179D01*
X138614090Y-114348559D01*
X138558820Y-114310794D01*
X138509698Y-114261673D01*
X138451874Y-114237721D01*
X138401890Y-114203569D01*
X138338367Y-114190705D01*
X138276309Y-114165000D01*
X138211431Y-114165000D01*
X138150000Y-114152560D01*
X135350000Y-114152560D01*
X135283887Y-114165000D01*
X135223691Y-114165000D01*
X135173584Y-114185755D01*
X135114683Y-114196838D01*
X135056609Y-114234208D01*
X134990302Y-114261673D01*
X134947661Y-114304314D01*
X134898559Y-114335910D01*
X134860795Y-114391179D01*
X134811673Y-114440301D01*
X134787720Y-114498128D01*
X134753569Y-114548110D01*
X134740706Y-114611631D01*
X134715000Y-114673690D01*
X134715000Y-114738569D01*
X134702560Y-114800000D01*
X134702560Y-118200000D01*
X134715000Y-118266113D01*
X134715000Y-118326310D01*
X134735755Y-118376418D01*
X134746838Y-118435317D01*
X134784207Y-118493390D01*
X134811673Y-118559699D01*
X134854315Y-118602340D01*
X134885910Y-118651441D01*
X134941180Y-118689206D01*
X134990302Y-118738327D01*
X135048126Y-118762279D01*
X135098110Y-118796431D01*
X135161633Y-118809295D01*
X135223691Y-118835000D01*
X135288569Y-118835000D01*
X135350000Y-118847440D01*
X138150000Y-118847440D01*
X138216113Y-118835000D01*
X138276309Y-118835000D01*
X138326416Y-118814245D01*
X138385317Y-118803162D01*
X138443391Y-118765792D01*
X138509698Y-118738327D01*
X138552339Y-118695686D01*
X138601441Y-118664090D01*
X138639205Y-118608821D01*
X138688327Y-118559699D01*
X138712280Y-118501872D01*
X138746431Y-118451890D01*
X138759294Y-118388369D01*
X138785000Y-118326310D01*
X138785000Y-118261431D01*
X138797440Y-118200000D01*
X138797440Y-117363636D01*
X138830839Y-117397093D01*
X139523405Y-117684672D01*
X140273305Y-117685326D01*
X140966372Y-117398957D01*
X141497093Y-116869161D01*
X141784672Y-116176595D01*
X141785130Y-115651130D01*
X141930839Y-115797093D01*
X141969873Y-115813302D01*
X141975533Y-115826123D01*
X142301231Y-115950893D01*
X142623405Y-116084672D01*
X142650505Y-116084696D01*
X142675806Y-116094388D01*
X143024460Y-116085022D01*
X143373305Y-116085326D01*
X143398350Y-116074978D01*
X143425435Y-116074250D01*
X143815001Y-115912887D01*
X143815001Y-115950001D01*
X143901398Y-116384347D01*
X144055516Y-116615001D01*
X144147435Y-116752567D01*
X145947435Y-118552567D01*
X146115243Y-118720376D01*
X146114674Y-119373305D01*
X146401043Y-120066372D01*
X146834206Y-120500292D01*
X146402907Y-120930839D01*
X146115328Y-121623405D01*
X146114674Y-122373305D01*
X146401043Y-123066372D01*
X146930839Y-123597093D01*
X147623405Y-123884672D01*
X148373305Y-123885326D01*
X149066372Y-123598957D01*
X149280703Y-123385000D01*
X149767766Y-123385000D01*
X150297783Y-123279573D01*
X150747109Y-122979343D01*
X151179344Y-122547108D01*
X151290000Y-122381500D01*
X151290000Y-146205908D01*
X147640452Y-149855456D01*
X147559656Y-149659914D01*
X147142283Y-149241812D01*
X146596681Y-149015258D01*
X146005911Y-149014743D01*
X145459914Y-149240344D01*
X145300087Y-149399892D01*
X145142283Y-149241812D01*
X144596681Y-149015258D01*
X144005911Y-149014743D01*
X143459914Y-149240344D01*
X143300087Y-149399892D01*
X143142283Y-149241812D01*
X142596681Y-149015258D01*
X142005911Y-149014743D01*
X141459914Y-149240344D01*
X141300087Y-149399892D01*
X141142283Y-149241812D01*
X140596681Y-149015258D01*
X140005911Y-149014743D01*
X139459914Y-149240344D01*
X139300087Y-149399892D01*
X139142283Y-149241812D01*
X138596681Y-149015258D01*
X138005911Y-149014743D01*
X137459914Y-149240344D01*
X137300087Y-149399892D01*
X137142283Y-149241812D01*
X136596681Y-149015258D01*
X136005911Y-149014743D01*
X135459914Y-149240344D01*
X135041812Y-149657717D01*
X134815258Y-150203319D01*
X134814743Y-150794089D01*
X135040344Y-151340086D01*
X135457717Y-151758188D01*
X136003319Y-151984742D01*
X136594089Y-151985257D01*
X137140086Y-151759656D01*
X137299913Y-151600108D01*
X137457717Y-151758188D01*
X138003319Y-151984742D01*
X138594089Y-151985257D01*
X139140086Y-151759656D01*
X139299913Y-151600108D01*
X139457717Y-151758188D01*
X140003319Y-151984742D01*
X140594089Y-151985257D01*
X141140086Y-151759656D01*
X141299913Y-151600108D01*
X141457717Y-151758188D01*
X142003319Y-151984742D01*
X142594089Y-151985257D01*
X143140086Y-151759656D01*
X143299913Y-151600108D01*
X143457717Y-151758188D01*
X144003319Y-151984742D01*
X144594089Y-151985257D01*
X145140086Y-151759656D01*
X145299913Y-151600108D01*
X145457717Y-151758188D01*
X145655566Y-151840342D01*
X141705908Y-155790000D01*
X88710000Y-155790000D01*
X88710000Y-150794089D01*
X90464743Y-150794089D01*
X90690344Y-151340086D01*
X91107717Y-151758188D01*
X91653319Y-151984742D01*
X92244089Y-151985257D01*
X92790086Y-151759656D01*
X92949913Y-151600108D01*
X93107717Y-151758188D01*
X93653319Y-151984742D01*
X94244089Y-151985257D01*
X94790086Y-151759656D01*
X94949913Y-151600108D01*
X95107717Y-151758188D01*
X95653319Y-151984742D01*
X96244089Y-151985257D01*
X96790086Y-151759656D01*
X96949913Y-151600108D01*
X97107717Y-151758188D01*
X97653319Y-151984742D01*
X98244089Y-151985257D01*
X98790086Y-151759656D01*
X98949913Y-151600108D01*
X99107717Y-151758188D01*
X99653319Y-151984742D01*
X100244089Y-151985257D01*
X100790086Y-151759656D01*
X100949913Y-151600108D01*
X101107717Y-151758188D01*
X101653319Y-151984742D01*
X102244089Y-151985257D01*
X102393489Y-151923526D01*
X105904381Y-151923526D01*
X105914974Y-152228502D01*
X105914708Y-152533697D01*
X105926573Y-152562412D01*
X105927651Y-152593456D01*
X106139255Y-153104313D01*
X106152607Y-153109456D01*
X106170694Y-153153229D01*
X106644278Y-153627640D01*
X106690296Y-153646748D01*
X106695687Y-153660745D01*
X106981503Y-153767668D01*
X107263362Y-153884707D01*
X107294430Y-153884734D01*
X107323526Y-153895619D01*
X107628502Y-153885026D01*
X107933697Y-153885292D01*
X107962412Y-153873427D01*
X107993456Y-153872349D01*
X108504313Y-153660745D01*
X108509456Y-153647393D01*
X108553229Y-153629306D01*
X108900189Y-153282950D01*
X109244278Y-153627640D01*
X109290296Y-153646748D01*
X109295687Y-153660745D01*
X109581503Y-153767668D01*
X109863362Y-153884707D01*
X109894430Y-153884734D01*
X109923526Y-153895619D01*
X110228502Y-153885026D01*
X110533697Y-153885292D01*
X110562412Y-153873427D01*
X110593456Y-153872349D01*
X111104313Y-153660745D01*
X111109456Y-153647393D01*
X111153229Y-153629306D01*
X111627640Y-153155722D01*
X111646748Y-153109704D01*
X111660745Y-153104313D01*
X111767668Y-152818497D01*
X111884707Y-152536638D01*
X111884734Y-152505570D01*
X111895619Y-152476474D01*
X111885026Y-152171498D01*
X111885292Y-151866303D01*
X111873427Y-151837588D01*
X111872349Y-151806544D01*
X111660745Y-151295687D01*
X111647393Y-151290544D01*
X111629306Y-151246771D01*
X111155722Y-150772360D01*
X111109704Y-150753252D01*
X111104313Y-150739255D01*
X110818497Y-150632332D01*
X110536638Y-150515293D01*
X110505570Y-150515266D01*
X110476474Y-150504381D01*
X110171498Y-150514974D01*
X109866303Y-150514708D01*
X109837588Y-150526573D01*
X109806544Y-150527651D01*
X109295687Y-150739255D01*
X109290544Y-150752607D01*
X109246771Y-150770694D01*
X108899811Y-151117050D01*
X108555722Y-150772360D01*
X108509704Y-150753252D01*
X108504313Y-150739255D01*
X108218497Y-150632332D01*
X107936638Y-150515293D01*
X107905570Y-150515266D01*
X107876474Y-150504381D01*
X107571498Y-150514974D01*
X107266303Y-150514708D01*
X107237588Y-150526573D01*
X107206544Y-150527651D01*
X106695687Y-150739255D01*
X106690544Y-150752607D01*
X106646771Y-150770694D01*
X106172360Y-151244278D01*
X106153252Y-151290296D01*
X106139255Y-151295687D01*
X106032332Y-151581503D01*
X105915293Y-151863362D01*
X105915266Y-151894430D01*
X105904381Y-151923526D01*
X102393489Y-151923526D01*
X102790086Y-151759656D01*
X103208188Y-151342283D01*
X103434742Y-150796681D01*
X103435257Y-150205911D01*
X103209656Y-149659914D01*
X102792283Y-149241812D01*
X102246681Y-149015258D01*
X101655911Y-149014743D01*
X101109914Y-149240344D01*
X100950087Y-149399892D01*
X100792283Y-149241812D01*
X100246681Y-149015258D01*
X99655911Y-149014743D01*
X99109914Y-149240344D01*
X98950087Y-149399892D01*
X98792283Y-149241812D01*
X98246681Y-149015258D01*
X97655911Y-149014743D01*
X97109914Y-149240344D01*
X96950087Y-149399892D01*
X96792283Y-149241812D01*
X96246681Y-149015258D01*
X95655911Y-149014743D01*
X95109914Y-149240344D01*
X94950087Y-149399892D01*
X94792283Y-149241812D01*
X94246681Y-149015258D01*
X93655911Y-149014743D01*
X93109914Y-149240344D01*
X92950087Y-149399892D01*
X92792283Y-149241812D01*
X92246681Y-149015258D01*
X91655911Y-149014743D01*
X91109914Y-149240344D01*
X90691812Y-149657717D01*
X90465258Y-150203319D01*
X90464743Y-150794089D01*
X88710000Y-150794089D01*
X88710000Y-147611189D01*
X88915654Y-147748603D01*
X89350000Y-147835000D01*
X104100000Y-147835000D01*
X104534346Y-147748603D01*
X104902566Y-147502566D01*
X106024853Y-146380279D01*
X106300009Y-146435011D01*
X108111044Y-146435011D01*
X108029996Y-146515918D01*
X108011630Y-146560149D01*
X107997901Y-146565641D01*
X107886519Y-146861448D01*
X107765301Y-147153373D01*
X107765275Y-147183448D01*
X107754677Y-147211593D01*
X107764975Y-147527507D01*
X107764699Y-147843599D01*
X107776184Y-147871395D01*
X107777164Y-147901453D01*
X107997901Y-148434359D01*
X108010954Y-148439581D01*
X108028281Y-148481515D01*
X108515918Y-148970004D01*
X108560149Y-148988370D01*
X108565641Y-149002099D01*
X108861448Y-149113481D01*
X109153373Y-149234699D01*
X109183448Y-149234725D01*
X109211593Y-149245323D01*
X109527507Y-149235025D01*
X109843599Y-149235301D01*
X109871395Y-149223816D01*
X109901453Y-149222836D01*
X110434359Y-149002099D01*
X110439581Y-148989046D01*
X110481515Y-148971719D01*
X110970004Y-148484082D01*
X110988370Y-148439851D01*
X111002099Y-148434359D01*
X111113481Y-148138552D01*
X111234699Y-147846627D01*
X111234725Y-147816552D01*
X111245323Y-147788407D01*
X111235025Y-147472493D01*
X111235301Y-147156401D01*
X111223816Y-147128605D01*
X111222836Y-147098547D01*
X111002099Y-146565641D01*
X110989046Y-146560419D01*
X110971719Y-146518485D01*
X110888391Y-146435011D01*
X113997060Y-146435011D01*
X114431406Y-146348614D01*
X114478133Y-146317392D01*
X114489979Y-146376943D01*
X114703500Y-146696500D01*
X115023057Y-146910021D01*
X115400000Y-146985000D01*
X119692000Y-146985000D01*
X121965000Y-149258000D01*
X121965000Y-149385005D01*
X121950087Y-149399892D01*
X121792283Y-149241812D01*
X121246681Y-149015258D01*
X120655911Y-149014743D01*
X120109914Y-149240344D01*
X119950087Y-149399892D01*
X119792283Y-149241812D01*
X119246681Y-149015258D01*
X118655911Y-149014743D01*
X118109914Y-149240344D01*
X117950087Y-149399892D01*
X117792283Y-149241812D01*
X117246681Y-149015258D01*
X116655911Y-149014743D01*
X116109914Y-149240344D01*
X115950087Y-149399892D01*
X115792283Y-149241812D01*
X115246681Y-149015258D01*
X114655911Y-149014743D01*
X114109914Y-149240344D01*
X113691812Y-149657717D01*
X113465258Y-150203319D01*
X113464743Y-150794089D01*
X113690344Y-151340086D01*
X114107717Y-151758188D01*
X114653319Y-151984742D01*
X115244089Y-151985257D01*
X115790086Y-151759656D01*
X115949913Y-151600108D01*
X116107717Y-151758188D01*
X116653319Y-151984742D01*
X117244089Y-151985257D01*
X117790086Y-151759656D01*
X117949913Y-151600108D01*
X118107717Y-151758188D01*
X118653319Y-151984742D01*
X119244089Y-151985257D01*
X119790086Y-151759656D01*
X119949913Y-151600108D01*
X120107717Y-151758188D01*
X120653319Y-151984742D01*
X121244089Y-151985257D01*
X121790086Y-151759656D01*
X121949913Y-151600108D01*
X122107717Y-151758188D01*
X122653319Y-151984742D01*
X123244089Y-151985257D01*
X123790086Y-151759656D01*
X123949913Y-151600108D01*
X124107717Y-151758188D01*
X124653319Y-151984742D01*
X125244089Y-151985257D01*
X125790086Y-151759656D01*
X126208188Y-151342283D01*
X126434742Y-150796681D01*
X126435257Y-150205911D01*
X126209656Y-149659914D01*
X125792283Y-149241812D01*
X125246681Y-149015258D01*
X124655911Y-149014743D01*
X124109914Y-149240344D01*
X123950087Y-149399892D01*
X123935000Y-149384778D01*
X123935000Y-148850000D01*
X123860021Y-148473057D01*
X123646500Y-148153500D01*
X120796500Y-145303500D01*
X120476943Y-145089979D01*
X120100000Y-145015000D01*
X117990132Y-145015000D01*
X118002566Y-145002566D01*
X118014303Y-144985000D01*
X122200000Y-144985000D01*
X122576943Y-144910021D01*
X122896500Y-144696500D01*
X123110021Y-144376943D01*
X123185000Y-144000000D01*
X123172075Y-143935023D01*
X134065000Y-143935023D01*
X134065000Y-144550000D01*
X134077929Y-144615000D01*
X127900000Y-144615000D01*
X127523057Y-144689979D01*
X127203500Y-144903500D01*
X127153500Y-144953500D01*
X126939979Y-145273057D01*
X126865000Y-145650000D01*
X126939979Y-146026943D01*
X127153500Y-146346500D01*
X127473057Y-146560021D01*
X127850000Y-146635000D01*
X127981645Y-146608814D01*
X127886519Y-146861448D01*
X127765301Y-147153373D01*
X127765275Y-147183448D01*
X127754677Y-147211593D01*
X127764975Y-147527507D01*
X127764699Y-147843599D01*
X127776184Y-147871395D01*
X127777164Y-147901453D01*
X127997901Y-148434359D01*
X128010954Y-148439581D01*
X128028281Y-148481515D01*
X128515918Y-148970004D01*
X128560149Y-148988370D01*
X128565641Y-149002099D01*
X128861448Y-149113481D01*
X129153373Y-149234699D01*
X129183448Y-149234725D01*
X129211593Y-149245323D01*
X129527507Y-149235025D01*
X129843599Y-149235301D01*
X129871395Y-149223816D01*
X129901453Y-149222836D01*
X130434359Y-149002099D01*
X130439581Y-148989046D01*
X130481515Y-148971719D01*
X130970004Y-148484082D01*
X130988370Y-148439851D01*
X131002099Y-148434359D01*
X131113481Y-148138552D01*
X131234699Y-147846627D01*
X131234725Y-147816552D01*
X131245323Y-147788407D01*
X131235025Y-147472493D01*
X131235301Y-147156401D01*
X131223816Y-147128605D01*
X131222836Y-147098547D01*
X131010118Y-146585000D01*
X136400000Y-146585000D01*
X136776943Y-146510021D01*
X137096500Y-146296500D01*
X137310021Y-145976943D01*
X137385000Y-145600000D01*
X137372071Y-145535000D01*
X139150000Y-145535000D01*
X139526943Y-145460021D01*
X139846500Y-145246500D01*
X140076525Y-145016476D01*
X140212562Y-144812882D01*
X140226943Y-144810021D01*
X140546500Y-144596500D01*
X140760021Y-144276943D01*
X140835000Y-143900000D01*
X140760021Y-143523057D01*
X140546500Y-143203500D01*
X140335000Y-143062180D01*
X140335000Y-142215869D01*
X140557466Y-142438335D01*
X140656883Y-142678943D01*
X140919673Y-142942192D01*
X141263201Y-143084838D01*
X141635167Y-143085162D01*
X141978943Y-142943117D01*
X142242192Y-142680327D01*
X142384838Y-142336799D01*
X142385162Y-141964833D01*
X142253721Y-141646721D01*
X143364990Y-142757990D01*
X143364990Y-143500000D01*
X143439969Y-143876943D01*
X143653490Y-144196500D01*
X143973047Y-144410021D01*
X143993008Y-144413992D01*
X141792000Y-146615000D01*
X134000000Y-146615000D01*
X133623057Y-146689979D01*
X133303500Y-146903500D01*
X133089979Y-147223057D01*
X133015000Y-147600000D01*
X133089979Y-147976943D01*
X133303500Y-148296500D01*
X133623057Y-148510021D01*
X134000000Y-148585000D01*
X142200000Y-148585000D01*
X142576943Y-148510021D01*
X142896500Y-148296500D01*
X145496500Y-145696500D01*
X145710021Y-145376943D01*
X145785000Y-145000000D01*
X145710021Y-144623057D01*
X145496500Y-144303500D01*
X145176943Y-144089979D01*
X145124619Y-144079571D01*
X145260011Y-143876943D01*
X145334990Y-143500000D01*
X145334990Y-142349990D01*
X145260011Y-141973047D01*
X145046490Y-141653490D01*
X141193000Y-137800000D01*
X145952560Y-137800000D01*
X145952560Y-141200000D01*
X145965000Y-141266113D01*
X145965000Y-141326310D01*
X145985755Y-141376418D01*
X145996838Y-141435317D01*
X146034207Y-141493390D01*
X146061673Y-141559699D01*
X146104315Y-141602340D01*
X146135910Y-141651441D01*
X146191180Y-141689206D01*
X146240302Y-141738327D01*
X146298126Y-141762279D01*
X146348110Y-141796431D01*
X146411633Y-141809295D01*
X146473691Y-141835000D01*
X146538569Y-141835000D01*
X146600000Y-141847440D01*
X149400000Y-141847440D01*
X149466113Y-141835000D01*
X149526309Y-141835000D01*
X149576416Y-141814245D01*
X149635317Y-141803162D01*
X149693391Y-141765792D01*
X149759698Y-141738327D01*
X149802339Y-141695686D01*
X149851441Y-141664090D01*
X149889205Y-141608821D01*
X149938327Y-141559699D01*
X149962280Y-141501872D01*
X149996431Y-141451890D01*
X150009294Y-141388369D01*
X150035000Y-141326310D01*
X150035000Y-141261431D01*
X150047440Y-141200000D01*
X150047440Y-137800000D01*
X150035000Y-137733887D01*
X150035000Y-137673690D01*
X150014245Y-137623582D01*
X150003162Y-137564683D01*
X149965793Y-137506610D01*
X149938327Y-137440301D01*
X149895685Y-137397660D01*
X149864090Y-137348559D01*
X149808820Y-137310794D01*
X149759698Y-137261673D01*
X149701874Y-137237721D01*
X149651890Y-137203569D01*
X149588367Y-137190705D01*
X149526309Y-137165000D01*
X149461431Y-137165000D01*
X149400000Y-137152560D01*
X146600000Y-137152560D01*
X146533887Y-137165000D01*
X146473691Y-137165000D01*
X146423584Y-137185755D01*
X146364683Y-137196838D01*
X146306609Y-137234208D01*
X146240302Y-137261673D01*
X146197661Y-137304314D01*
X146148559Y-137335910D01*
X146110795Y-137391179D01*
X146061673Y-137440301D01*
X146037720Y-137498128D01*
X146003569Y-137548110D01*
X145990706Y-137611631D01*
X145965000Y-137673690D01*
X145965000Y-137738569D01*
X145952560Y-137800000D01*
X141193000Y-137800000D01*
X139799066Y-136406066D01*
X140202566Y-136002566D01*
X140448604Y-135634345D01*
X140535000Y-135200000D01*
X140448604Y-134765654D01*
X140327894Y-134585000D01*
X146100000Y-134585000D01*
X146630017Y-134479573D01*
X147079343Y-134179343D01*
X148073621Y-133185065D01*
X148373305Y-133185326D01*
X149066372Y-132898957D01*
X149597093Y-132369161D01*
X149884672Y-131676595D01*
X149885326Y-130926695D01*
X149598957Y-130233628D01*
X149069161Y-129702907D01*
X148376595Y-129415328D01*
X147626695Y-129414674D01*
X146933628Y-129701043D01*
X146402907Y-130230839D01*
X146115328Y-130923405D01*
X146115064Y-131226250D01*
X145526314Y-131815000D01*
X118373686Y-131815000D01*
X118185000Y-131626314D01*
X118185000Y-126000000D01*
X118079573Y-125469983D01*
X117779343Y-125020657D01*
X116079343Y-123320657D01*
X116016307Y-123278538D01*
X115630017Y-123020427D01*
X115100000Y-122915000D01*
X114897440Y-122915000D01*
X114897440Y-122300000D01*
X114853162Y-122064683D01*
X114714090Y-121848559D01*
X114501890Y-121703569D01*
X114250000Y-121652560D01*
X111750000Y-121652560D01*
X111514683Y-121696838D01*
X111298559Y-121835910D01*
X111176192Y-122015000D01*
X105621192Y-122015000D01*
X105514090Y-121848559D01*
X105416424Y-121781827D01*
X105648603Y-121434346D01*
X105735000Y-121000000D01*
X105648603Y-120565654D01*
X105402566Y-120197434D01*
X105034346Y-119951397D01*
X104600000Y-119865000D01*
X99450000Y-119865000D01*
X99015654Y-119951397D01*
X98647434Y-120197434D01*
X98401397Y-120565654D01*
X98315000Y-121000000D01*
X98401397Y-121434346D01*
X98647434Y-121802566D01*
X99015654Y-122048603D01*
X99450000Y-122135000D01*
X101935973Y-122135000D01*
X101902560Y-122300000D01*
X101902560Y-122915000D01*
X101050000Y-122915000D01*
X100519984Y-123020426D01*
X100070657Y-123320657D01*
X95820657Y-127570657D01*
X95520427Y-128019983D01*
X95415000Y-128550000D01*
X95415000Y-131065000D01*
X90800000Y-131065000D01*
X90269983Y-131170427D01*
X89820657Y-131470657D01*
X89520427Y-131919983D01*
X89415000Y-132450000D01*
X89520427Y-132980017D01*
X89820657Y-133429343D01*
X90023682Y-133565000D01*
X89000000Y-133565000D01*
X88710000Y-133622685D01*
X88710000Y-115922815D01*
X89364630Y-115922815D01*
X89688980Y-116707800D01*
X90289041Y-117308909D01*
X91073459Y-117634628D01*
X91922815Y-117635370D01*
X92707800Y-117311020D01*
X93308909Y-116710959D01*
X93634628Y-115926541D01*
X93635370Y-115077185D01*
X93311020Y-114292200D01*
X92710959Y-113691091D01*
X91926541Y-113365372D01*
X91077185Y-113364630D01*
X90292200Y-113688980D01*
X89691091Y-114289041D01*
X89365372Y-115073459D01*
X89364630Y-115922815D01*
X88710000Y-115922815D01*
X88710000Y-110416187D01*
X89357277Y-110416187D01*
X89364982Y-110819454D01*
X89364630Y-111222815D01*
X89373080Y-111243266D01*
X89373503Y-111265387D01*
X89667261Y-111974582D01*
X89677343Y-111979635D01*
X89688980Y-112007800D01*
X90289041Y-112608909D01*
X90319895Y-112621721D01*
X90325418Y-112632739D01*
X90700954Y-112779950D01*
X91073459Y-112934628D01*
X91095586Y-112934647D01*
X91116187Y-112942723D01*
X91519454Y-112935018D01*
X91922815Y-112935370D01*
X91943266Y-112926920D01*
X91965387Y-112926497D01*
X92674582Y-112632739D01*
X92679635Y-112622657D01*
X92707800Y-112611020D01*
X93308909Y-112010959D01*
X93321721Y-111980105D01*
X93332739Y-111974582D01*
X93479950Y-111599046D01*
X93634628Y-111226541D01*
X93634647Y-111204414D01*
X93642723Y-111183813D01*
X93635018Y-110780546D01*
X93635370Y-110377185D01*
X93626920Y-110356734D01*
X93626497Y-110334613D01*
X93332739Y-109625418D01*
X93322657Y-109620365D01*
X93311020Y-109592200D01*
X92710959Y-108991091D01*
X92680105Y-108978279D01*
X92674582Y-108967261D01*
X92299046Y-108820050D01*
X91926541Y-108665372D01*
X91904414Y-108665353D01*
X91883813Y-108657277D01*
X91480546Y-108664982D01*
X91077185Y-108664630D01*
X91056734Y-108673080D01*
X91034613Y-108673503D01*
X90325418Y-108967261D01*
X90320365Y-108977343D01*
X90292200Y-108988980D01*
X89691091Y-109589041D01*
X89678279Y-109619895D01*
X89667261Y-109625418D01*
X89520050Y-110000954D01*
X89365372Y-110373459D01*
X89365353Y-110395586D01*
X89357277Y-110416187D01*
X88710000Y-110416187D01*
X88710000Y-100710000D01*
X102700715Y-100710000D01*
X102700715Y-103535000D01*
X102700715Y-103535000D01*
G37*
X102700715Y-103535000D02*
X106899286Y-103535000D01*
X106899286Y-102211593D01*
X138754677Y-102211593D01*
X138764975Y-102527507D01*
X138764699Y-102843599D01*
X138776184Y-102871395D01*
X138777164Y-102901453D01*
X138997901Y-103434359D01*
X139010954Y-103439581D01*
X139028281Y-103481515D01*
X139515918Y-103970004D01*
X139560149Y-103988370D01*
X139565641Y-104002099D01*
X139861448Y-104113481D01*
X140153373Y-104234699D01*
X140183448Y-104234725D01*
X140211593Y-104245323D01*
X140527507Y-104235025D01*
X140843599Y-104235301D01*
X140871395Y-104223816D01*
X140901453Y-104222836D01*
X141434359Y-104002099D01*
X141439581Y-103989046D01*
X141481515Y-103971719D01*
X141970004Y-103484082D01*
X141988370Y-103439851D01*
X142002099Y-103434359D01*
X142113481Y-103138552D01*
X142234699Y-102846627D01*
X142234725Y-102816552D01*
X142245323Y-102788407D01*
X142235025Y-102472493D01*
X142235301Y-102156401D01*
X142223816Y-102128605D01*
X142222836Y-102098547D01*
X142002099Y-101565641D01*
X141989046Y-101560419D01*
X141971719Y-101518485D01*
X141484082Y-101029996D01*
X141439851Y-101011630D01*
X141434359Y-100997901D01*
X141138552Y-100886519D01*
X140846627Y-100765301D01*
X140816552Y-100765275D01*
X140788407Y-100754677D01*
X140472493Y-100764975D01*
X140156401Y-100764699D01*
X140128605Y-100776184D01*
X140098547Y-100777164D01*
X139565641Y-100997901D01*
X139560419Y-101010954D01*
X139518485Y-101028281D01*
X139029996Y-101515918D01*
X139011630Y-101560149D01*
X138997901Y-101565641D01*
X138886519Y-101861448D01*
X138765301Y-102153373D01*
X138765275Y-102183448D01*
X138754677Y-102211593D01*
X106899286Y-102211593D01*
X106899286Y-100710000D01*
X141689140Y-100710000D01*
X142490000Y-101577598D01*
X142490000Y-107514999D01*
X142370132Y-107514999D01*
X137552566Y-102697433D01*
X137184346Y-102451396D01*
X136750000Y-102364999D01*
X123977855Y-102364999D01*
X123543509Y-102451396D01*
X123175289Y-102697433D01*
X122497434Y-103375288D01*
X122251397Y-103743508D01*
X122165000Y-104177854D01*
X122165000Y-107097858D01*
X122251397Y-107532204D01*
X122396924Y-107750000D01*
X122497434Y-107900424D01*
X122937432Y-108340422D01*
X122965000Y-108358842D01*
X122965000Y-109965000D01*
X122750000Y-109965000D01*
X122373057Y-110039979D01*
X122053500Y-110253500D01*
X121839979Y-110573057D01*
X121765000Y-110950000D01*
X121839979Y-111326943D01*
X122053500Y-111646500D01*
X122373057Y-111860021D01*
X122750000Y-111935000D01*
X122965000Y-111935000D01*
X122965000Y-112889998D01*
X123051397Y-113324344D01*
X123251933Y-113624467D01*
X123297434Y-113692564D01*
X123757430Y-114152560D01*
X121950000Y-114152560D01*
X121883887Y-114165000D01*
X121823691Y-114165000D01*
X121773584Y-114185755D01*
X121714683Y-114196838D01*
X121656609Y-114234208D01*
X121647440Y-114238006D01*
X121647440Y-112000000D01*
X121603162Y-111764683D01*
X121464090Y-111548559D01*
X121251890Y-111403569D01*
X121000000Y-111352560D01*
X117500000Y-111352560D01*
X117264683Y-111396838D01*
X117048559Y-111535910D01*
X116947440Y-111683903D01*
X116947440Y-109813955D01*
X117035910Y-109951441D01*
X117248110Y-110096431D01*
X117500000Y-110147440D01*
X121000000Y-110147440D01*
X121235317Y-110103162D01*
X121451441Y-109964090D01*
X121596431Y-109751890D01*
X121647440Y-109500000D01*
X121647440Y-106000000D01*
X121603162Y-105764683D01*
X121464090Y-105548559D01*
X121251890Y-105403569D01*
X121000000Y-105352560D01*
X117500000Y-105352560D01*
X117264683Y-105396838D01*
X117048559Y-105535910D01*
X116903569Y-105748110D01*
X116852560Y-106000000D01*
X116852560Y-106365000D01*
X106850000Y-106365000D01*
X106319983Y-106470427D01*
X105870657Y-106770657D01*
X103220657Y-109420657D01*
X102920427Y-109869984D01*
X102815000Y-110400000D01*
X102920427Y-110930016D01*
X103220657Y-111379343D01*
X103669984Y-111679573D01*
X104200000Y-111785000D01*
X104730016Y-111679573D01*
X105179343Y-111379343D01*
X107423686Y-109135000D01*
X112152560Y-109135000D01*
X112152560Y-112500000D01*
X112196838Y-112735317D01*
X112335910Y-112951441D01*
X112548110Y-113096431D01*
X112800000Y-113147440D01*
X113642318Y-113147440D01*
X112024758Y-114765000D01*
X98400005Y-114765000D01*
X98400000Y-114764999D01*
X97774313Y-114889457D01*
X97243880Y-115243880D01*
X97243878Y-115243883D01*
X93922760Y-118565000D01*
X92884565Y-118565000D01*
X92710959Y-118391091D01*
X91926541Y-118065372D01*
X91077185Y-118064630D01*
X90292200Y-118388980D01*
X89691091Y-118989041D01*
X89365372Y-119773459D01*
X89364630Y-120622815D01*
X89688980Y-121407800D01*
X90289041Y-122008909D01*
X90394040Y-122052509D01*
X90029996Y-122415918D01*
X89765301Y-123053373D01*
X89764699Y-123743599D01*
X90028281Y-124381515D01*
X90515918Y-124870004D01*
X91153373Y-125134699D01*
X91843599Y-125135301D01*
X92481515Y-124871719D01*
X92970004Y-124384082D01*
X93234699Y-123746627D01*
X93235301Y-123056401D01*
X92971719Y-122418485D01*
X92606676Y-122052804D01*
X92707800Y-122011020D01*
X92884127Y-121835000D01*
X94599995Y-121835000D01*
X94600000Y-121835001D01*
X95225688Y-121710543D01*
X95756120Y-121356120D01*
X99077239Y-118035000D01*
X112701993Y-118035000D01*
X112701998Y-118035001D01*
X113327686Y-117910543D01*
X113519188Y-117782585D01*
X113657932Y-118118371D01*
X114089357Y-118550551D01*
X114653330Y-118784733D01*
X115263991Y-118785265D01*
X115828371Y-118552068D01*
X116230323Y-118150818D01*
X116629357Y-118550551D01*
X117193330Y-118784733D01*
X117803991Y-118785265D01*
X118368371Y-118552068D01*
X118800551Y-118120643D01*
X119034733Y-117556670D01*
X119035265Y-116946009D01*
X118802068Y-116381629D01*
X118568288Y-116147440D01*
X121000000Y-116147440D01*
X121235317Y-116103162D01*
X121302560Y-116059892D01*
X121302560Y-118200000D01*
X121315000Y-118266113D01*
X121315000Y-118326310D01*
X121335755Y-118376418D01*
X121346838Y-118435317D01*
X121384207Y-118493390D01*
X121411673Y-118559699D01*
X121454315Y-118602340D01*
X121485910Y-118651441D01*
X121541180Y-118689206D01*
X121590302Y-118738327D01*
X121648126Y-118762279D01*
X121698110Y-118796431D01*
X121761633Y-118809295D01*
X121823691Y-118835000D01*
X121838697Y-118835000D01*
X121751397Y-118965654D01*
X121665000Y-119400000D01*
X121751397Y-119834346D01*
X121997434Y-120202566D01*
X122365654Y-120448603D01*
X122800000Y-120535000D01*
X124810002Y-120535000D01*
X125015000Y-120494223D01*
X125015000Y-122792000D01*
X124503500Y-123303500D01*
X124289979Y-123623057D01*
X124215000Y-124000000D01*
X124215000Y-125115010D01*
X123849990Y-125115010D01*
X123530449Y-125178571D01*
X123401100Y-125264999D01*
X123259555Y-125359576D01*
X123109567Y-125509565D01*
X122928562Y-125780458D01*
X122865001Y-126099999D01*
X122865001Y-128700001D01*
X122928562Y-129019542D01*
X123078460Y-129243880D01*
X123106335Y-129285598D01*
X123206883Y-129528943D01*
X123469673Y-129792192D01*
X123813201Y-129934838D01*
X124185167Y-129935162D01*
X124528943Y-129793117D01*
X124792192Y-129530327D01*
X124934838Y-129186799D01*
X124935014Y-128984900D01*
X125344089Y-128985257D01*
X125890086Y-128759656D01*
X126049913Y-128600108D01*
X126207717Y-128758188D01*
X126753319Y-128984742D01*
X127344089Y-128985257D01*
X127890086Y-128759656D01*
X128049913Y-128600108D01*
X128207717Y-128758188D01*
X128753319Y-128984742D01*
X129344089Y-128985257D01*
X129890086Y-128759656D01*
X130049913Y-128600108D01*
X130207717Y-128758188D01*
X130753319Y-128984742D01*
X131344089Y-128985257D01*
X131890086Y-128759656D01*
X132049913Y-128600108D01*
X132207717Y-128758188D01*
X132753319Y-128984742D01*
X133344089Y-128985257D01*
X133890086Y-128759656D01*
X134049913Y-128600108D01*
X134207717Y-128758188D01*
X134753319Y-128984742D01*
X135344089Y-128985257D01*
X135890086Y-128759656D01*
X136308188Y-128342283D01*
X136534742Y-127796681D01*
X136535257Y-127205911D01*
X136309656Y-126659914D01*
X135892283Y-126241812D01*
X135346681Y-126015258D01*
X134755911Y-126014743D01*
X134209914Y-126240344D01*
X134050087Y-126399892D01*
X133892283Y-126241812D01*
X133346681Y-126015258D01*
X132755911Y-126014743D01*
X132209914Y-126240344D01*
X132050087Y-126399892D01*
X131892283Y-126241812D01*
X131757256Y-126185744D01*
X133367194Y-124575806D01*
X138005612Y-124575806D01*
X138014978Y-124924460D01*
X138014674Y-125273305D01*
X138025022Y-125298350D01*
X138025750Y-125325435D01*
X138273877Y-125924467D01*
X138285926Y-125929786D01*
X138301043Y-125966372D01*
X138830839Y-126497093D01*
X138836998Y-126499650D01*
X138833628Y-126501043D01*
X138302907Y-127030839D01*
X138015328Y-127723405D01*
X138014674Y-128473305D01*
X138301043Y-129166372D01*
X138830839Y-129697093D01*
X139523405Y-129984672D01*
X140273305Y-129985326D01*
X140966372Y-129698957D01*
X141497093Y-129169161D01*
X141784672Y-128476595D01*
X141785130Y-127951130D01*
X141930839Y-128097093D01*
X141969873Y-128113302D01*
X141975533Y-128126123D01*
X142301231Y-128250893D01*
X142623405Y-128384672D01*
X142650505Y-128384696D01*
X142675806Y-128394388D01*
X143024460Y-128385022D01*
X143373305Y-128385326D01*
X143398350Y-128374978D01*
X143425435Y-128374250D01*
X144024467Y-128126123D01*
X144029786Y-128114074D01*
X144066372Y-128098957D01*
X144597093Y-127569161D01*
X144613302Y-127530127D01*
X144626123Y-127524467D01*
X144750893Y-127198769D01*
X144884672Y-126876595D01*
X144884696Y-126849495D01*
X144894388Y-126824194D01*
X144885022Y-126475540D01*
X144885283Y-126175806D01*
X146105612Y-126175806D01*
X146114978Y-126524460D01*
X146114674Y-126873305D01*
X146125022Y-126898350D01*
X146125750Y-126925435D01*
X146373877Y-127524467D01*
X146385926Y-127529786D01*
X146401043Y-127566372D01*
X146930839Y-128097093D01*
X146969873Y-128113302D01*
X146975533Y-128126123D01*
X147301231Y-128250893D01*
X147623405Y-128384672D01*
X147650505Y-128384696D01*
X147675806Y-128394388D01*
X148024460Y-128385022D01*
X148373305Y-128385326D01*
X148398350Y-128374978D01*
X148425435Y-128374250D01*
X149024467Y-128126123D01*
X149029786Y-128114074D01*
X149066372Y-128098957D01*
X149597093Y-127569161D01*
X149613302Y-127530127D01*
X149626123Y-127524467D01*
X149750893Y-127198769D01*
X149884672Y-126876595D01*
X149884696Y-126849495D01*
X149894388Y-126824194D01*
X149885022Y-126475540D01*
X149885326Y-126126695D01*
X149874978Y-126101650D01*
X149874250Y-126074565D01*
X149626123Y-125475533D01*
X149614074Y-125470214D01*
X149598957Y-125433628D01*
X149069161Y-124902907D01*
X149030127Y-124886698D01*
X149024467Y-124873877D01*
X148698769Y-124749107D01*
X148376595Y-124615328D01*
X148349495Y-124615304D01*
X148324194Y-124605612D01*
X147975540Y-124614978D01*
X147626695Y-124614674D01*
X147601650Y-124625022D01*
X147574565Y-124625750D01*
X146975533Y-124873877D01*
X146970214Y-124885926D01*
X146933628Y-124901043D01*
X146402907Y-125430839D01*
X146386698Y-125469873D01*
X146373877Y-125475533D01*
X146249107Y-125801231D01*
X146115328Y-126123405D01*
X146115304Y-126150505D01*
X146105612Y-126175806D01*
X144885283Y-126175806D01*
X144885326Y-126126695D01*
X144874978Y-126101650D01*
X144874250Y-126074565D01*
X144626123Y-125475533D01*
X144614074Y-125470214D01*
X144598957Y-125433628D01*
X144069161Y-124902907D01*
X144030127Y-124886698D01*
X144024467Y-124873877D01*
X143698769Y-124749107D01*
X143580160Y-124699856D01*
X144066372Y-124498957D01*
X144597093Y-123969161D01*
X144884672Y-123276595D01*
X144885326Y-122526695D01*
X144598957Y-121833628D01*
X144069161Y-121302907D01*
X143376595Y-121015328D01*
X142626695Y-121014674D01*
X141933628Y-121301043D01*
X141402907Y-121830839D01*
X141115328Y-122523405D01*
X141114674Y-123273305D01*
X141238309Y-123572525D01*
X140969161Y-123302907D01*
X140930127Y-123286698D01*
X140924467Y-123273877D01*
X140598769Y-123149107D01*
X140276595Y-123015328D01*
X140249495Y-123015304D01*
X140224194Y-123005612D01*
X139875540Y-123014978D01*
X139526695Y-123014674D01*
X139501650Y-123025022D01*
X139474565Y-123025750D01*
X138875533Y-123273877D01*
X138870214Y-123285926D01*
X138833628Y-123301043D01*
X138302907Y-123830839D01*
X138286698Y-123869873D01*
X138273877Y-123875533D01*
X138149107Y-124201231D01*
X138015328Y-124523405D01*
X138015304Y-124550505D01*
X138005612Y-124575806D01*
X133367194Y-124575806D01*
X134196500Y-123746500D01*
X134410021Y-123426943D01*
X134421351Y-123369984D01*
X134485000Y-123050000D01*
X134485000Y-110649996D01*
X134410021Y-110273053D01*
X134196500Y-109953496D01*
X133876943Y-109739975D01*
X133500000Y-109664996D01*
X133385000Y-109687871D01*
X133385000Y-106350000D01*
X133310021Y-105973057D01*
X133096500Y-105653500D01*
X132646500Y-105203500D01*
X132326943Y-104989979D01*
X131950000Y-104915000D01*
X131573057Y-104989979D01*
X131253500Y-105203500D01*
X131039979Y-105523057D01*
X130965000Y-105900000D01*
X131014272Y-106147708D01*
X130871057Y-106206883D01*
X130607808Y-106469673D01*
X130465162Y-106813201D01*
X130464838Y-107185167D01*
X130565000Y-107427578D01*
X130565000Y-113110780D01*
X130489979Y-113223057D01*
X130415000Y-113600000D01*
X130415000Y-118092000D01*
X130354704Y-118152296D01*
X130384998Y-118000000D01*
X130384998Y-111750010D01*
X130385000Y-111750000D01*
X130384998Y-111749990D01*
X130384998Y-105808002D01*
X130496500Y-105696500D01*
X130710021Y-105376943D01*
X130785000Y-105000000D01*
X130712396Y-104634999D01*
X136279868Y-104634999D01*
X140382415Y-108737546D01*
X140439980Y-109026942D01*
X140653501Y-109346499D01*
X140973058Y-109560020D01*
X141249460Y-109615000D01*
X138400000Y-109615000D01*
X138023057Y-109689979D01*
X137703499Y-109903500D01*
X135603500Y-112003500D01*
X135389979Y-112323057D01*
X135315000Y-112700000D01*
X135389979Y-113076943D01*
X135603500Y-113396500D01*
X135923057Y-113610021D01*
X136300000Y-113685000D01*
X136676943Y-113610021D01*
X136996500Y-113396500D01*
X138008531Y-112384469D01*
X138014978Y-112624460D01*
X138014674Y-112973305D01*
X138025022Y-112998350D01*
X138025750Y-113025435D01*
X138273877Y-113624467D01*
X138285926Y-113629786D01*
X138301043Y-113666372D01*
X138830839Y-114197093D01*
X138836998Y-114199650D01*
X138833628Y-114201043D01*
X138642159Y-114392179D01*
X138614090Y-114348559D01*
X138558820Y-114310794D01*
X138509698Y-114261673D01*
X138451874Y-114237721D01*
X138401890Y-114203569D01*
X138338367Y-114190705D01*
X138276309Y-114165000D01*
X138211431Y-114165000D01*
X138150000Y-114152560D01*
X135350000Y-114152560D01*
X135283887Y-114165000D01*
X135223691Y-114165000D01*
X135173584Y-114185755D01*
X135114683Y-114196838D01*
X135056609Y-114234208D01*
X134990302Y-114261673D01*
X134947661Y-114304314D01*
X134898559Y-114335910D01*
X134860795Y-114391179D01*
X134811673Y-114440301D01*
X134787720Y-114498128D01*
X134753569Y-114548110D01*
X134740706Y-114611631D01*
X134715000Y-114673690D01*
X134715000Y-114738569D01*
X134702560Y-114800000D01*
X134702560Y-118200000D01*
X134715000Y-118266113D01*
X134715000Y-118326310D01*
X134735755Y-118376418D01*
X134746838Y-118435317D01*
X134784207Y-118493390D01*
X134811673Y-118559699D01*
X134854315Y-118602340D01*
X134885910Y-118651441D01*
X134941180Y-118689206D01*
X134990302Y-118738327D01*
X135048126Y-118762279D01*
X135098110Y-118796431D01*
X135161633Y-118809295D01*
X135223691Y-118835000D01*
X135288569Y-118835000D01*
X135350000Y-118847440D01*
X138150000Y-118847440D01*
X138216113Y-118835000D01*
X138276309Y-118835000D01*
X138326416Y-118814245D01*
X138385317Y-118803162D01*
X138443391Y-118765792D01*
X138509698Y-118738327D01*
X138552339Y-118695686D01*
X138601441Y-118664090D01*
X138639205Y-118608821D01*
X138688327Y-118559699D01*
X138712280Y-118501872D01*
X138746431Y-118451890D01*
X138759294Y-118388369D01*
X138785000Y-118326310D01*
X138785000Y-118261431D01*
X138797440Y-118200000D01*
X138797440Y-117363636D01*
X138830839Y-117397093D01*
X139523405Y-117684672D01*
X140273305Y-117685326D01*
X140966372Y-117398957D01*
X141497093Y-116869161D01*
X141784672Y-116176595D01*
X141785130Y-115651130D01*
X141930839Y-115797093D01*
X141969873Y-115813302D01*
X141975533Y-115826123D01*
X142301231Y-115950893D01*
X142623405Y-116084672D01*
X142650505Y-116084696D01*
X142675806Y-116094388D01*
X143024460Y-116085022D01*
X143373305Y-116085326D01*
X143398350Y-116074978D01*
X143425435Y-116074250D01*
X143815001Y-115912887D01*
X143815001Y-115950001D01*
X143901398Y-116384347D01*
X144055516Y-116615001D01*
X144147435Y-116752567D01*
X145947435Y-118552567D01*
X146115243Y-118720376D01*
X146114674Y-119373305D01*
X146401043Y-120066372D01*
X146834206Y-120500292D01*
X146402907Y-120930839D01*
X146115328Y-121623405D01*
X146114674Y-122373305D01*
X146401043Y-123066372D01*
X146930839Y-123597093D01*
X147623405Y-123884672D01*
X148373305Y-123885326D01*
X149066372Y-123598957D01*
X149280703Y-123385000D01*
X149767766Y-123385000D01*
X150297783Y-123279573D01*
X150747109Y-122979343D01*
X151179344Y-122547108D01*
X151290000Y-122381500D01*
X151290000Y-146205908D01*
X147640452Y-149855456D01*
X147559656Y-149659914D01*
X147142283Y-149241812D01*
X146596681Y-149015258D01*
X146005911Y-149014743D01*
X145459914Y-149240344D01*
X145300087Y-149399892D01*
X145142283Y-149241812D01*
X144596681Y-149015258D01*
X144005911Y-149014743D01*
X143459914Y-149240344D01*
X143300087Y-149399892D01*
X143142283Y-149241812D01*
X142596681Y-149015258D01*
X142005911Y-149014743D01*
X141459914Y-149240344D01*
X141300087Y-149399892D01*
X141142283Y-149241812D01*
X140596681Y-149015258D01*
X140005911Y-149014743D01*
X139459914Y-149240344D01*
X139300087Y-149399892D01*
X139142283Y-149241812D01*
X138596681Y-149015258D01*
X138005911Y-149014743D01*
X137459914Y-149240344D01*
X137300087Y-149399892D01*
X137142283Y-149241812D01*
X136596681Y-149015258D01*
X136005911Y-149014743D01*
X135459914Y-149240344D01*
X135041812Y-149657717D01*
X134815258Y-150203319D01*
X134814743Y-150794089D01*
X135040344Y-151340086D01*
X135457717Y-151758188D01*
X136003319Y-151984742D01*
X136594089Y-151985257D01*
X137140086Y-151759656D01*
X137299913Y-151600108D01*
X137457717Y-151758188D01*
X138003319Y-151984742D01*
X138594089Y-151985257D01*
X139140086Y-151759656D01*
X139299913Y-151600108D01*
X139457717Y-151758188D01*
X140003319Y-151984742D01*
X140594089Y-151985257D01*
X141140086Y-151759656D01*
X141299913Y-151600108D01*
X141457717Y-151758188D01*
X142003319Y-151984742D01*
X142594089Y-151985257D01*
X143140086Y-151759656D01*
X143299913Y-151600108D01*
X143457717Y-151758188D01*
X144003319Y-151984742D01*
X144594089Y-151985257D01*
X145140086Y-151759656D01*
X145299913Y-151600108D01*
X145457717Y-151758188D01*
X145655566Y-151840342D01*
X141705908Y-155790000D01*
X88710000Y-155790000D01*
X88710000Y-150794089D01*
X90464743Y-150794089D01*
X90690344Y-151340086D01*
X91107717Y-151758188D01*
X91653319Y-151984742D01*
X92244089Y-151985257D01*
X92790086Y-151759656D01*
X92949913Y-151600108D01*
X93107717Y-151758188D01*
X93653319Y-151984742D01*
X94244089Y-151985257D01*
X94790086Y-151759656D01*
X94949913Y-151600108D01*
X95107717Y-151758188D01*
X95653319Y-151984742D01*
X96244089Y-151985257D01*
X96790086Y-151759656D01*
X96949913Y-151600108D01*
X97107717Y-151758188D01*
X97653319Y-151984742D01*
X98244089Y-151985257D01*
X98790086Y-151759656D01*
X98949913Y-151600108D01*
X99107717Y-151758188D01*
X99653319Y-151984742D01*
X100244089Y-151985257D01*
X100790086Y-151759656D01*
X100949913Y-151600108D01*
X101107717Y-151758188D01*
X101653319Y-151984742D01*
X102244089Y-151985257D01*
X102393489Y-151923526D01*
X105904381Y-151923526D01*
X105914974Y-152228502D01*
X105914708Y-152533697D01*
X105926573Y-152562412D01*
X105927651Y-152593456D01*
X106139255Y-153104313D01*
X106152607Y-153109456D01*
X106170694Y-153153229D01*
X106644278Y-153627640D01*
X106690296Y-153646748D01*
X106695687Y-153660745D01*
X106981503Y-153767668D01*
X107263362Y-153884707D01*
X107294430Y-153884734D01*
X107323526Y-153895619D01*
X107628502Y-153885026D01*
X107933697Y-153885292D01*
X107962412Y-153873427D01*
X107993456Y-153872349D01*
X108504313Y-153660745D01*
X108509456Y-153647393D01*
X108553229Y-153629306D01*
X108900189Y-153282950D01*
X109244278Y-153627640D01*
X109290296Y-153646748D01*
X109295687Y-153660745D01*
X109581503Y-153767668D01*
X109863362Y-153884707D01*
X109894430Y-153884734D01*
X109923526Y-153895619D01*
X110228502Y-153885026D01*
X110533697Y-153885292D01*
X110562412Y-153873427D01*
X110593456Y-153872349D01*
X111104313Y-153660745D01*
X111109456Y-153647393D01*
X111153229Y-153629306D01*
X111627640Y-153155722D01*
X111646748Y-153109704D01*
X111660745Y-153104313D01*
X111767668Y-152818497D01*
X111884707Y-152536638D01*
X111884734Y-152505570D01*
X111895619Y-152476474D01*
X111885026Y-152171498D01*
X111885292Y-151866303D01*
X111873427Y-151837588D01*
X111872349Y-151806544D01*
X111660745Y-151295687D01*
X111647393Y-151290544D01*
X111629306Y-151246771D01*
X111155722Y-150772360D01*
X111109704Y-150753252D01*
X111104313Y-150739255D01*
X110818497Y-150632332D01*
X110536638Y-150515293D01*
X110505570Y-150515266D01*
X110476474Y-150504381D01*
X110171498Y-150514974D01*
X109866303Y-150514708D01*
X109837588Y-150526573D01*
X109806544Y-150527651D01*
X109295687Y-150739255D01*
X109290544Y-150752607D01*
X109246771Y-150770694D01*
X108899811Y-151117050D01*
X108555722Y-150772360D01*
X108509704Y-150753252D01*
X108504313Y-150739255D01*
X108218497Y-150632332D01*
X107936638Y-150515293D01*
X107905570Y-150515266D01*
X107876474Y-150504381D01*
X107571498Y-150514974D01*
X107266303Y-150514708D01*
X107237588Y-150526573D01*
X107206544Y-150527651D01*
X106695687Y-150739255D01*
X106690544Y-150752607D01*
X106646771Y-150770694D01*
X106172360Y-151244278D01*
X106153252Y-151290296D01*
X106139255Y-151295687D01*
X106032332Y-151581503D01*
X105915293Y-151863362D01*
X105915266Y-151894430D01*
X105904381Y-151923526D01*
X102393489Y-151923526D01*
X102790086Y-151759656D01*
X103208188Y-151342283D01*
X103434742Y-150796681D01*
X103435257Y-150205911D01*
X103209656Y-149659914D01*
X102792283Y-149241812D01*
X102246681Y-149015258D01*
X101655911Y-149014743D01*
X101109914Y-149240344D01*
X100950087Y-149399892D01*
X100792283Y-149241812D01*
X100246681Y-149015258D01*
X99655911Y-149014743D01*
X99109914Y-149240344D01*
X98950087Y-149399892D01*
X98792283Y-149241812D01*
X98246681Y-149015258D01*
X97655911Y-149014743D01*
X97109914Y-149240344D01*
X96950087Y-149399892D01*
X96792283Y-149241812D01*
X96246681Y-149015258D01*
X95655911Y-149014743D01*
X95109914Y-149240344D01*
X94950087Y-149399892D01*
X94792283Y-149241812D01*
X94246681Y-149015258D01*
X93655911Y-149014743D01*
X93109914Y-149240344D01*
X92950087Y-149399892D01*
X92792283Y-149241812D01*
X92246681Y-149015258D01*
X91655911Y-149014743D01*
X91109914Y-149240344D01*
X90691812Y-149657717D01*
X90465258Y-150203319D01*
X90464743Y-150794089D01*
X88710000Y-150794089D01*
X88710000Y-147611189D01*
X88915654Y-147748603D01*
X89350000Y-147835000D01*
X104100000Y-147835000D01*
X104534346Y-147748603D01*
X104902566Y-147502566D01*
X106024853Y-146380279D01*
X106300009Y-146435011D01*
X108111044Y-146435011D01*
X108029996Y-146515918D01*
X108011630Y-146560149D01*
X107997901Y-146565641D01*
X107886519Y-146861448D01*
X107765301Y-147153373D01*
X107765275Y-147183448D01*
X107754677Y-147211593D01*
X107764975Y-147527507D01*
X107764699Y-147843599D01*
X107776184Y-147871395D01*
X107777164Y-147901453D01*
X107997901Y-148434359D01*
X108010954Y-148439581D01*
X108028281Y-148481515D01*
X108515918Y-148970004D01*
X108560149Y-148988370D01*
X108565641Y-149002099D01*
X108861448Y-149113481D01*
X109153373Y-149234699D01*
X109183448Y-149234725D01*
X109211593Y-149245323D01*
X109527507Y-149235025D01*
X109843599Y-149235301D01*
X109871395Y-149223816D01*
X109901453Y-149222836D01*
X110434359Y-149002099D01*
X110439581Y-148989046D01*
X110481515Y-148971719D01*
X110970004Y-148484082D01*
X110988370Y-148439851D01*
X111002099Y-148434359D01*
X111113481Y-148138552D01*
X111234699Y-147846627D01*
X111234725Y-147816552D01*
X111245323Y-147788407D01*
X111235025Y-147472493D01*
X111235301Y-147156401D01*
X111223816Y-147128605D01*
X111222836Y-147098547D01*
X111002099Y-146565641D01*
X110989046Y-146560419D01*
X110971719Y-146518485D01*
X110888391Y-146435011D01*
X113997060Y-146435011D01*
X114431406Y-146348614D01*
X114478133Y-146317392D01*
X114489979Y-146376943D01*
X114703500Y-146696500D01*
X115023057Y-146910021D01*
X115400000Y-146985000D01*
X119692000Y-146985000D01*
X121965000Y-149258000D01*
X121965000Y-149385005D01*
X121950087Y-149399892D01*
X121792283Y-149241812D01*
X121246681Y-149015258D01*
X120655911Y-149014743D01*
X120109914Y-149240344D01*
X119950087Y-149399892D01*
X119792283Y-149241812D01*
X119246681Y-149015258D01*
X118655911Y-149014743D01*
X118109914Y-149240344D01*
X117950087Y-149399892D01*
X117792283Y-149241812D01*
X117246681Y-149015258D01*
X116655911Y-149014743D01*
X116109914Y-149240344D01*
X115950087Y-149399892D01*
X115792283Y-149241812D01*
X115246681Y-149015258D01*
X114655911Y-149014743D01*
X114109914Y-149240344D01*
X113691812Y-149657717D01*
X113465258Y-150203319D01*
X113464743Y-150794089D01*
X113690344Y-151340086D01*
X114107717Y-151758188D01*
X114653319Y-151984742D01*
X115244089Y-151985257D01*
X115790086Y-151759656D01*
X115949913Y-151600108D01*
X116107717Y-151758188D01*
X116653319Y-151984742D01*
X117244089Y-151985257D01*
X117790086Y-151759656D01*
X117949913Y-151600108D01*
X118107717Y-151758188D01*
X118653319Y-151984742D01*
X119244089Y-151985257D01*
X119790086Y-151759656D01*
X119949913Y-151600108D01*
X120107717Y-151758188D01*
X120653319Y-151984742D01*
X121244089Y-151985257D01*
X121790086Y-151759656D01*
X121949913Y-151600108D01*
X122107717Y-151758188D01*
X122653319Y-151984742D01*
X123244089Y-151985257D01*
X123790086Y-151759656D01*
X123949913Y-151600108D01*
X124107717Y-151758188D01*
X124653319Y-151984742D01*
X125244089Y-151985257D01*
X125790086Y-151759656D01*
X126208188Y-151342283D01*
X126434742Y-150796681D01*
X126435257Y-150205911D01*
X126209656Y-149659914D01*
X125792283Y-149241812D01*
X125246681Y-149015258D01*
X124655911Y-149014743D01*
X124109914Y-149240344D01*
X123950087Y-149399892D01*
X123935000Y-149384778D01*
X123935000Y-148850000D01*
X123860021Y-148473057D01*
X123646500Y-148153500D01*
X120796500Y-145303500D01*
X120476943Y-145089979D01*
X120100000Y-145015000D01*
X117990132Y-145015000D01*
X118002566Y-145002566D01*
X118014303Y-144985000D01*
X122200000Y-144985000D01*
X122576943Y-144910021D01*
X122896500Y-144696500D01*
X123110021Y-144376943D01*
X123185000Y-144000000D01*
X123172075Y-143935023D01*
X134065000Y-143935023D01*
X134065000Y-144550000D01*
X134077929Y-144615000D01*
X127900000Y-144615000D01*
X127523057Y-144689979D01*
X127203500Y-144903500D01*
X127153500Y-144953500D01*
X126939979Y-145273057D01*
X126865000Y-145650000D01*
X126939979Y-146026943D01*
X127153500Y-146346500D01*
X127473057Y-146560021D01*
X127850000Y-146635000D01*
X127981645Y-146608814D01*
X127886519Y-146861448D01*
X127765301Y-147153373D01*
X127765275Y-147183448D01*
X127754677Y-147211593D01*
X127764975Y-147527507D01*
X127764699Y-147843599D01*
X127776184Y-147871395D01*
X127777164Y-147901453D01*
X127997901Y-148434359D01*
X128010954Y-148439581D01*
X128028281Y-148481515D01*
X128515918Y-148970004D01*
X128560149Y-148988370D01*
X128565641Y-149002099D01*
X128861448Y-149113481D01*
X129153373Y-149234699D01*
X129183448Y-149234725D01*
X129211593Y-149245323D01*
X129527507Y-149235025D01*
X129843599Y-149235301D01*
X129871395Y-149223816D01*
X129901453Y-149222836D01*
X130434359Y-149002099D01*
X130439581Y-148989046D01*
X130481515Y-148971719D01*
X130970004Y-148484082D01*
X130988370Y-148439851D01*
X131002099Y-148434359D01*
X131113481Y-148138552D01*
X131234699Y-147846627D01*
X131234725Y-147816552D01*
X131245323Y-147788407D01*
X131235025Y-147472493D01*
X131235301Y-147156401D01*
X131223816Y-147128605D01*
X131222836Y-147098547D01*
X131010118Y-146585000D01*
X136400000Y-146585000D01*
X136776943Y-146510021D01*
X137096500Y-146296500D01*
X137310021Y-145976943D01*
X137385000Y-145600000D01*
X137372071Y-145535000D01*
X139150000Y-145535000D01*
X139526943Y-145460021D01*
X139846500Y-145246500D01*
X140076525Y-145016476D01*
X140212562Y-144812882D01*
X140226943Y-144810021D01*
X140546500Y-144596500D01*
X140760021Y-144276943D01*
X140835000Y-143900000D01*
X140760021Y-143523057D01*
X140546500Y-143203500D01*
X140335000Y-143062180D01*
X140335000Y-142215869D01*
X140557466Y-142438335D01*
X140656883Y-142678943D01*
X140919673Y-142942192D01*
X141263201Y-143084838D01*
X141635167Y-143085162D01*
X141978943Y-142943117D01*
X142242192Y-142680327D01*
X142384838Y-142336799D01*
X142385162Y-141964833D01*
X142253721Y-141646721D01*
X143364990Y-142757990D01*
X143364990Y-143500000D01*
X143439969Y-143876943D01*
X143653490Y-144196500D01*
X143973047Y-144410021D01*
X143993008Y-144413992D01*
X141792000Y-146615000D01*
X134000000Y-146615000D01*
X133623057Y-146689979D01*
X133303500Y-146903500D01*
X133089979Y-147223057D01*
X133015000Y-147600000D01*
X133089979Y-147976943D01*
X133303500Y-148296500D01*
X133623057Y-148510021D01*
X134000000Y-148585000D01*
X142200000Y-148585000D01*
X142576943Y-148510021D01*
X142896500Y-148296500D01*
X145496500Y-145696500D01*
X145710021Y-145376943D01*
X145785000Y-145000000D01*
X145710021Y-144623057D01*
X145496500Y-144303500D01*
X145176943Y-144089979D01*
X145124619Y-144079571D01*
X145260011Y-143876943D01*
X145334990Y-143500000D01*
X145334990Y-142349990D01*
X145260011Y-141973047D01*
X145046490Y-141653490D01*
X141193000Y-137800000D01*
X145952560Y-137800000D01*
X145952560Y-141200000D01*
X145965000Y-141266113D01*
X145965000Y-141326310D01*
X145985755Y-141376418D01*
X145996838Y-141435317D01*
X146034207Y-141493390D01*
X146061673Y-141559699D01*
X146104315Y-141602340D01*
X146135910Y-141651441D01*
X146191180Y-141689206D01*
X146240302Y-141738327D01*
X146298126Y-141762279D01*
X146348110Y-141796431D01*
X146411633Y-141809295D01*
X146473691Y-141835000D01*
X146538569Y-141835000D01*
X146600000Y-141847440D01*
X149400000Y-141847440D01*
X149466113Y-141835000D01*
X149526309Y-141835000D01*
X149576416Y-141814245D01*
X149635317Y-141803162D01*
X149693391Y-141765792D01*
X149759698Y-141738327D01*
X149802339Y-141695686D01*
X149851441Y-141664090D01*
X149889205Y-141608821D01*
X149938327Y-141559699D01*
X149962280Y-141501872D01*
X149996431Y-141451890D01*
X150009294Y-141388369D01*
X150035000Y-141326310D01*
X150035000Y-141261431D01*
X150047440Y-141200000D01*
X150047440Y-137800000D01*
X150035000Y-137733887D01*
X150035000Y-137673690D01*
X150014245Y-137623582D01*
X150003162Y-137564683D01*
X149965793Y-137506610D01*
X149938327Y-137440301D01*
X149895685Y-137397660D01*
X149864090Y-137348559D01*
X149808820Y-137310794D01*
X149759698Y-137261673D01*
X149701874Y-137237721D01*
X149651890Y-137203569D01*
X149588367Y-137190705D01*
X149526309Y-137165000D01*
X149461431Y-137165000D01*
X149400000Y-137152560D01*
X146600000Y-137152560D01*
X146533887Y-137165000D01*
X146473691Y-137165000D01*
X146423584Y-137185755D01*
X146364683Y-137196838D01*
X146306609Y-137234208D01*
X146240302Y-137261673D01*
X146197661Y-137304314D01*
X146148559Y-137335910D01*
X146110795Y-137391179D01*
X146061673Y-137440301D01*
X146037720Y-137498128D01*
X146003569Y-137548110D01*
X145990706Y-137611631D01*
X145965000Y-137673690D01*
X145965000Y-137738569D01*
X145952560Y-137800000D01*
X141193000Y-137800000D01*
X139799066Y-136406066D01*
X140202566Y-136002566D01*
X140448604Y-135634345D01*
X140535000Y-135200000D01*
X140448604Y-134765654D01*
X140327894Y-134585000D01*
X146100000Y-134585000D01*
X146630017Y-134479573D01*
X147079343Y-134179343D01*
X148073621Y-133185065D01*
X148373305Y-133185326D01*
X149066372Y-132898957D01*
X149597093Y-132369161D01*
X149884672Y-131676595D01*
X149885326Y-130926695D01*
X149598957Y-130233628D01*
X149069161Y-129702907D01*
X148376595Y-129415328D01*
X147626695Y-129414674D01*
X146933628Y-129701043D01*
X146402907Y-130230839D01*
X146115328Y-130923405D01*
X146115064Y-131226250D01*
X145526314Y-131815000D01*
X118373686Y-131815000D01*
X118185000Y-131626314D01*
X118185000Y-126000000D01*
X118079573Y-125469983D01*
X117779343Y-125020657D01*
X116079343Y-123320657D01*
X116016307Y-123278538D01*
X115630017Y-123020427D01*
X115100000Y-122915000D01*
X114897440Y-122915000D01*
X114897440Y-122300000D01*
X114853162Y-122064683D01*
X114714090Y-121848559D01*
X114501890Y-121703569D01*
X114250000Y-121652560D01*
X111750000Y-121652560D01*
X111514683Y-121696838D01*
X111298559Y-121835910D01*
X111176192Y-122015000D01*
X105621192Y-122015000D01*
X105514090Y-121848559D01*
X105416424Y-121781827D01*
X105648603Y-121434346D01*
X105735000Y-121000000D01*
X105648603Y-120565654D01*
X105402566Y-120197434D01*
X105034346Y-119951397D01*
X104600000Y-119865000D01*
X99450000Y-119865000D01*
X99015654Y-119951397D01*
X98647434Y-120197434D01*
X98401397Y-120565654D01*
X98315000Y-121000000D01*
X98401397Y-121434346D01*
X98647434Y-121802566D01*
X99015654Y-122048603D01*
X99450000Y-122135000D01*
X101935973Y-122135000D01*
X101902560Y-122300000D01*
X101902560Y-122915000D01*
X101050000Y-122915000D01*
X100519984Y-123020426D01*
X100070657Y-123320657D01*
X95820657Y-127570657D01*
X95520427Y-128019983D01*
X95415000Y-128550000D01*
X95415000Y-131065000D01*
X90800000Y-131065000D01*
X90269983Y-131170427D01*
X89820657Y-131470657D01*
X89520427Y-131919983D01*
X89415000Y-132450000D01*
X89520427Y-132980017D01*
X89820657Y-133429343D01*
X90023682Y-133565000D01*
X89000000Y-133565000D01*
X88710000Y-133622685D01*
X88710000Y-115922815D01*
X89364630Y-115922815D01*
X89688980Y-116707800D01*
X90289041Y-117308909D01*
X91073459Y-117634628D01*
X91922815Y-117635370D01*
X92707800Y-117311020D01*
X93308909Y-116710959D01*
X93634628Y-115926541D01*
X93635370Y-115077185D01*
X93311020Y-114292200D01*
X92710959Y-113691091D01*
X91926541Y-113365372D01*
X91077185Y-113364630D01*
X90292200Y-113688980D01*
X89691091Y-114289041D01*
X89365372Y-115073459D01*
X89364630Y-115922815D01*
X88710000Y-115922815D01*
X88710000Y-110416187D01*
X89357277Y-110416187D01*
X89364982Y-110819454D01*
X89364630Y-111222815D01*
X89373080Y-111243266D01*
X89373503Y-111265387D01*
X89667261Y-111974582D01*
X89677343Y-111979635D01*
X89688980Y-112007800D01*
X90289041Y-112608909D01*
X90319895Y-112621721D01*
X90325418Y-112632739D01*
X90700954Y-112779950D01*
X91073459Y-112934628D01*
X91095586Y-112934647D01*
X91116187Y-112942723D01*
X91519454Y-112935018D01*
X91922815Y-112935370D01*
X91943266Y-112926920D01*
X91965387Y-112926497D01*
X92674582Y-112632739D01*
X92679635Y-112622657D01*
X92707800Y-112611020D01*
X93308909Y-112010959D01*
X93321721Y-111980105D01*
X93332739Y-111974582D01*
X93479950Y-111599046D01*
X93634628Y-111226541D01*
X93634647Y-111204414D01*
X93642723Y-111183813D01*
X93635018Y-110780546D01*
X93635370Y-110377185D01*
X93626920Y-110356734D01*
X93626497Y-110334613D01*
X93332739Y-109625418D01*
X93322657Y-109620365D01*
X93311020Y-109592200D01*
X92710959Y-108991091D01*
X92680105Y-108978279D01*
X92674582Y-108967261D01*
X92299046Y-108820050D01*
X91926541Y-108665372D01*
X91904414Y-108665353D01*
X91883813Y-108657277D01*
X91480546Y-108664982D01*
X91077185Y-108664630D01*
X91056734Y-108673080D01*
X91034613Y-108673503D01*
X90325418Y-108967261D01*
X90320365Y-108977343D01*
X90292200Y-108988980D01*
X89691091Y-109589041D01*
X89678279Y-109619895D01*
X89667261Y-109625418D01*
X89520050Y-110000954D01*
X89365372Y-110373459D01*
X89365353Y-110395586D01*
X89357277Y-110416187D01*
X88710000Y-110416187D01*
X88710000Y-100710000D01*
X102700715Y-100710000D01*
X102700715Y-103535000D01*
G36*
X141114978Y-126524460D02*
X141114870Y-126648870D01*
X140969161Y-126502907D01*
X140963002Y-126500350D01*
X140966372Y-126498957D01*
X141110430Y-126355150D01*
X141114978Y-126524460D01*
X141114978Y-126524460D01*
G37*
X141114978Y-126524460D02*
X141114870Y-126648870D01*
X140969161Y-126502907D01*
X140963002Y-126500350D01*
X140966372Y-126498957D01*
X141110430Y-126355150D01*
X141114978Y-126524460D01*
G36*
X141930839Y-124497093D02*
X142407416Y-124694985D01*
X141975533Y-124873877D01*
X141970214Y-124885926D01*
X141933628Y-124901043D01*
X141789570Y-125044850D01*
X141785022Y-124875540D01*
X141785326Y-124526695D01*
X141774978Y-124501650D01*
X141774250Y-124474565D01*
X141679144Y-124244958D01*
X141930839Y-124497093D01*
X141930839Y-124497093D01*
G37*
X141930839Y-124497093D02*
X142407416Y-124694985D01*
X141975533Y-124873877D01*
X141970214Y-124885926D01*
X141933628Y-124901043D01*
X141789570Y-125044850D01*
X141785022Y-124875540D01*
X141785326Y-124526695D01*
X141774978Y-124501650D01*
X141774250Y-124474565D01*
X141679144Y-124244958D01*
X141930839Y-124497093D01*
G36*
X95415000Y-135800000D02*
X95465000Y-136051367D01*
X95465000Y-136200000D01*
X95551397Y-136634346D01*
X95615000Y-136729535D01*
X95615000Y-142767736D01*
X94903500Y-143479236D01*
X94689979Y-143798793D01*
X94615000Y-144175736D01*
X94615000Y-144600000D01*
X94689979Y-144976943D01*
X94903500Y-145296500D01*
X95223057Y-145510021D01*
X95499454Y-145565000D01*
X89350000Y-145565000D01*
X88915654Y-145651397D01*
X88710000Y-145788811D01*
X88710000Y-144284252D01*
X88973057Y-144460021D01*
X89350000Y-144535000D01*
X91492004Y-144535000D01*
X91503500Y-144546496D01*
X91823057Y-144760017D01*
X92200000Y-144834995D01*
X92576943Y-144760017D01*
X92896500Y-144546496D01*
X93110021Y-144226939D01*
X93184999Y-143849996D01*
X93110021Y-143473053D01*
X92896500Y-143153496D01*
X92596504Y-142853500D01*
X92276947Y-142639979D01*
X91900004Y-142565000D01*
X89350000Y-142565000D01*
X88973057Y-142639979D01*
X88710000Y-142815748D01*
X88710000Y-141829329D01*
X88723691Y-141835000D01*
X88788569Y-141835000D01*
X88850000Y-141847440D01*
X91650000Y-141847440D01*
X91716113Y-141835000D01*
X91776309Y-141835000D01*
X91826416Y-141814245D01*
X91885317Y-141803162D01*
X91943391Y-141765792D01*
X92009698Y-141738327D01*
X92052339Y-141695686D01*
X92101441Y-141664090D01*
X92139205Y-141608821D01*
X92188327Y-141559699D01*
X92212280Y-141501872D01*
X92246431Y-141451890D01*
X92259294Y-141388369D01*
X92285000Y-141326310D01*
X92285000Y-141261431D01*
X92297440Y-141200000D01*
X92297440Y-137800000D01*
X92285000Y-137733887D01*
X92285000Y-137673690D01*
X92264245Y-137623582D01*
X92253162Y-137564683D01*
X92215793Y-137506610D01*
X92188327Y-137440301D01*
X92145685Y-137397660D01*
X92114090Y-137348559D01*
X92058820Y-137310794D01*
X92009698Y-137261673D01*
X91951874Y-137237721D01*
X91901890Y-137203569D01*
X91838367Y-137190705D01*
X91776309Y-137165000D01*
X91711431Y-137165000D01*
X91650000Y-137152560D01*
X88850000Y-137152560D01*
X88783887Y-137165000D01*
X88723691Y-137165000D01*
X88710000Y-137170671D01*
X88710000Y-135477315D01*
X89000000Y-135535000D01*
X92515000Y-135535000D01*
X92515000Y-138800000D01*
X92589979Y-139176943D01*
X92803500Y-139496500D01*
X93123057Y-139710021D01*
X93500000Y-139785000D01*
X93876943Y-139710021D01*
X94196500Y-139496500D01*
X94410021Y-139176943D01*
X94485000Y-138800000D01*
X94485000Y-135535000D01*
X94800000Y-135535000D01*
X95176943Y-135460021D01*
X95415000Y-135300957D01*
X95415000Y-135800000D01*
X95415000Y-135800000D01*
G37*
X95415000Y-135800000D02*
X95465000Y-136051367D01*
X95465000Y-136200000D01*
X95551397Y-136634346D01*
X95615000Y-136729535D01*
X95615000Y-142767736D01*
X94903500Y-143479236D01*
X94689979Y-143798793D01*
X94615000Y-144175736D01*
X94615000Y-144600000D01*
X94689979Y-144976943D01*
X94903500Y-145296500D01*
X95223057Y-145510021D01*
X95499454Y-145565000D01*
X89350000Y-145565000D01*
X88915654Y-145651397D01*
X88710000Y-145788811D01*
X88710000Y-144284252D01*
X88973057Y-144460021D01*
X89350000Y-144535000D01*
X91492004Y-144535000D01*
X91503500Y-144546496D01*
X91823057Y-144760017D01*
X92200000Y-144834995D01*
X92576943Y-144760017D01*
X92896500Y-144546496D01*
X93110021Y-144226939D01*
X93184999Y-143849996D01*
X93110021Y-143473053D01*
X92896500Y-143153496D01*
X92596504Y-142853500D01*
X92276947Y-142639979D01*
X91900004Y-142565000D01*
X89350000Y-142565000D01*
X88973057Y-142639979D01*
X88710000Y-142815748D01*
X88710000Y-141829329D01*
X88723691Y-141835000D01*
X88788569Y-141835000D01*
X88850000Y-141847440D01*
X91650000Y-141847440D01*
X91716113Y-141835000D01*
X91776309Y-141835000D01*
X91826416Y-141814245D01*
X91885317Y-141803162D01*
X91943391Y-141765792D01*
X92009698Y-141738327D01*
X92052339Y-141695686D01*
X92101441Y-141664090D01*
X92139205Y-141608821D01*
X92188327Y-141559699D01*
X92212280Y-141501872D01*
X92246431Y-141451890D01*
X92259294Y-141388369D01*
X92285000Y-141326310D01*
X92285000Y-141261431D01*
X92297440Y-141200000D01*
X92297440Y-137800000D01*
X92285000Y-137733887D01*
X92285000Y-137673690D01*
X92264245Y-137623582D01*
X92253162Y-137564683D01*
X92215793Y-137506610D01*
X92188327Y-137440301D01*
X92145685Y-137397660D01*
X92114090Y-137348559D01*
X92058820Y-137310794D01*
X92009698Y-137261673D01*
X91951874Y-137237721D01*
X91901890Y-137203569D01*
X91838367Y-137190705D01*
X91776309Y-137165000D01*
X91711431Y-137165000D01*
X91650000Y-137152560D01*
X88850000Y-137152560D01*
X88783887Y-137165000D01*
X88723691Y-137165000D01*
X88710000Y-137170671D01*
X88710000Y-135477315D01*
X89000000Y-135535000D01*
X92515000Y-135535000D01*
X92515000Y-138800000D01*
X92589979Y-139176943D01*
X92803500Y-139496500D01*
X93123057Y-139710021D01*
X93500000Y-139785000D01*
X93876943Y-139710021D01*
X94196500Y-139496500D01*
X94410021Y-139176943D01*
X94485000Y-138800000D01*
X94485000Y-135535000D01*
X94800000Y-135535000D01*
X95176943Y-135460021D01*
X95415000Y-135300957D01*
X95415000Y-135800000D01*
G36*
X97800008Y-138135000D02*
X101602560Y-138135000D01*
X101602560Y-141200000D01*
X101615000Y-141266113D01*
X101615000Y-141326310D01*
X101635755Y-141376418D01*
X101646838Y-141435317D01*
X101684207Y-141493390D01*
X101711673Y-141559699D01*
X101754315Y-141602340D01*
X101785910Y-141651441D01*
X101841180Y-141689206D01*
X101890302Y-141738327D01*
X101948126Y-141762279D01*
X101998110Y-141796431D01*
X102061633Y-141809295D01*
X102123691Y-141835000D01*
X102188569Y-141835000D01*
X102250000Y-141847440D01*
X104647428Y-141847440D01*
X103797434Y-142697434D01*
X103551397Y-143065655D01*
X103465000Y-143500000D01*
X103551397Y-143934345D01*
X103797434Y-144302566D01*
X104165655Y-144548603D01*
X104566526Y-144628342D01*
X103629868Y-145565000D01*
X95700546Y-145565000D01*
X95976943Y-145510021D01*
X96296500Y-145296500D01*
X96327639Y-145249898D01*
X96469685Y-145392192D01*
X96813213Y-145534838D01*
X97185179Y-145535162D01*
X97427590Y-145435000D01*
X98172782Y-145435000D01*
X98413217Y-145534838D01*
X98785183Y-145535162D01*
X99128959Y-145393117D01*
X99392208Y-145130327D01*
X99534854Y-144786799D01*
X99535178Y-144414833D01*
X99393133Y-144071057D01*
X99345430Y-144023271D01*
X99510021Y-143776943D01*
X99585000Y-143400000D01*
X99510021Y-143023057D01*
X99296500Y-142703500D01*
X98976943Y-142489979D01*
X98600000Y-142415000D01*
X97608000Y-142415000D01*
X97585000Y-142392000D01*
X97585000Y-138092232D01*
X97800008Y-138135000D01*
X97800008Y-138135000D01*
G37*
X97800008Y-138135000D02*
X101602560Y-138135000D01*
X101602560Y-141200000D01*
X101615000Y-141266113D01*
X101615000Y-141326310D01*
X101635755Y-141376418D01*
X101646838Y-141435317D01*
X101684207Y-141493390D01*
X101711673Y-141559699D01*
X101754315Y-141602340D01*
X101785910Y-141651441D01*
X101841180Y-141689206D01*
X101890302Y-141738327D01*
X101948126Y-141762279D01*
X101998110Y-141796431D01*
X102061633Y-141809295D01*
X102123691Y-141835000D01*
X102188569Y-141835000D01*
X102250000Y-141847440D01*
X104647428Y-141847440D01*
X103797434Y-142697434D01*
X103551397Y-143065655D01*
X103465000Y-143500000D01*
X103551397Y-143934345D01*
X103797434Y-144302566D01*
X104165655Y-144548603D01*
X104566526Y-144628342D01*
X103629868Y-145565000D01*
X95700546Y-145565000D01*
X95976943Y-145510021D01*
X96296500Y-145296500D01*
X96327639Y-145249898D01*
X96469685Y-145392192D01*
X96813213Y-145534838D01*
X97185179Y-145535162D01*
X97427590Y-145435000D01*
X98172782Y-145435000D01*
X98413217Y-145534838D01*
X98785183Y-145535162D01*
X99128959Y-145393117D01*
X99392208Y-145130327D01*
X99534854Y-144786799D01*
X99535178Y-144414833D01*
X99393133Y-144071057D01*
X99345430Y-144023271D01*
X99510021Y-143776943D01*
X99585000Y-143400000D01*
X99510021Y-143023057D01*
X99296500Y-142703500D01*
X98976943Y-142489979D01*
X98600000Y-142415000D01*
X97608000Y-142415000D01*
X97585000Y-142392000D01*
X97585000Y-138092232D01*
X97800008Y-138135000D01*
G36*
X111103500Y-143246500D02*
X111423057Y-143460021D01*
X111800000Y-143535000D01*
X112176943Y-143460021D01*
X112496500Y-143246500D01*
X112571001Y-143135001D01*
X112705515Y-143135001D01*
X112551397Y-143365655D01*
X112465000Y-143800000D01*
X112537606Y-144165011D01*
X106770141Y-144165011D01*
X106702565Y-144097435D01*
X106674890Y-144078943D01*
X106334345Y-143851397D01*
X105933473Y-143771659D01*
X106570131Y-143135001D01*
X111028999Y-143135001D01*
X111103500Y-143246500D01*
X111103500Y-143246500D01*
G37*
X111103500Y-143246500D02*
X111423057Y-143460021D01*
X111800000Y-143535000D01*
X112176943Y-143460021D01*
X112496500Y-143246500D01*
X112571001Y-143135001D01*
X112705515Y-143135001D01*
X112551397Y-143365655D01*
X112465000Y-143800000D01*
X112537606Y-144165011D01*
X106770141Y-144165011D01*
X106702565Y-144097435D01*
X106674890Y-144078943D01*
X106334345Y-143851397D01*
X105933473Y-143771659D01*
X106570131Y-143135001D01*
X111028999Y-143135001D01*
X111103500Y-143246500D01*
G36*
X140653805Y-140046805D02*
X140336799Y-139915172D01*
X139964833Y-139914848D01*
X139621057Y-140056893D01*
X139357808Y-140319683D01*
X139215162Y-140663211D01*
X139214963Y-140891861D01*
X138973057Y-140939979D01*
X138653500Y-141153500D01*
X138439979Y-141473057D01*
X138365000Y-141850000D01*
X138365000Y-143565000D01*
X136335000Y-143565000D01*
X136335000Y-142800023D01*
X136248603Y-142365677D01*
X136002566Y-141997457D01*
X135778050Y-141847440D01*
X136000000Y-141847440D01*
X136066113Y-141835000D01*
X136126309Y-141835000D01*
X136176416Y-141814245D01*
X136235317Y-141803162D01*
X136293391Y-141765792D01*
X136359698Y-141738327D01*
X136402339Y-141695686D01*
X136451441Y-141664090D01*
X136489205Y-141608821D01*
X136538327Y-141559699D01*
X136562280Y-141501872D01*
X136596431Y-141451890D01*
X136609294Y-141388369D01*
X136635000Y-141326310D01*
X136635000Y-141261431D01*
X136647440Y-141200000D01*
X136647440Y-137800000D01*
X136635000Y-137733887D01*
X136635000Y-137673690D01*
X136614245Y-137623582D01*
X136603162Y-137564683D01*
X136565793Y-137506610D01*
X136538327Y-137440301D01*
X136495685Y-137397660D01*
X136464090Y-137348559D01*
X136444246Y-137335000D01*
X137942000Y-137335000D01*
X140653805Y-140046805D01*
X140653805Y-140046805D01*
G37*
X140653805Y-140046805D02*
X140336799Y-139915172D01*
X139964833Y-139914848D01*
X139621057Y-140056893D01*
X139357808Y-140319683D01*
X139215162Y-140663211D01*
X139214963Y-140891861D01*
X138973057Y-140939979D01*
X138653500Y-141153500D01*
X138439979Y-141473057D01*
X138365000Y-141850000D01*
X138365000Y-143565000D01*
X136335000Y-143565000D01*
X136335000Y-142800023D01*
X136248603Y-142365677D01*
X136002566Y-141997457D01*
X135778050Y-141847440D01*
X136000000Y-141847440D01*
X136066113Y-141835000D01*
X136126309Y-141835000D01*
X136176416Y-141814245D01*
X136235317Y-141803162D01*
X136293391Y-141765792D01*
X136359698Y-141738327D01*
X136402339Y-141695686D01*
X136451441Y-141664090D01*
X136489205Y-141608821D01*
X136538327Y-141559699D01*
X136562280Y-141501872D01*
X136596431Y-141451890D01*
X136609294Y-141388369D01*
X136635000Y-141326310D01*
X136635000Y-141261431D01*
X136647440Y-141200000D01*
X136647440Y-137800000D01*
X136635000Y-137733887D01*
X136635000Y-137673690D01*
X136614245Y-137623582D01*
X136603162Y-137564683D01*
X136565793Y-137506610D01*
X136538327Y-137440301D01*
X136495685Y-137397660D01*
X136464090Y-137348559D01*
X136444246Y-137335000D01*
X137942000Y-137335000D01*
X140653805Y-140046805D01*
G36*
X124798559Y-137335910D02*
X124760795Y-137391179D01*
X124711673Y-137440301D01*
X124687720Y-137498128D01*
X124653569Y-137548110D01*
X124640706Y-137611631D01*
X124615000Y-137673690D01*
X124615000Y-137738569D01*
X124602560Y-137800000D01*
X124602560Y-141200000D01*
X124615000Y-141266113D01*
X124615000Y-141326310D01*
X124635755Y-141376418D01*
X124646838Y-141435317D01*
X124684207Y-141493390D01*
X124711673Y-141559699D01*
X124754315Y-141602340D01*
X124785910Y-141651441D01*
X124805788Y-141665023D01*
X119568097Y-141665023D01*
X119510021Y-141373057D01*
X119296500Y-141053500D01*
X118976943Y-140839979D01*
X118600000Y-140765000D01*
X116260842Y-140765000D01*
X116334838Y-140586799D01*
X116335162Y-140214833D01*
X116193117Y-139871057D01*
X115930327Y-139607808D01*
X115586799Y-139465162D01*
X115297440Y-139464910D01*
X115297440Y-138332509D01*
X115310012Y-138335010D01*
X119799990Y-138335010D01*
X120234336Y-138248613D01*
X120602556Y-138002576D01*
X121270132Y-137335000D01*
X124799973Y-137335000D01*
X124798559Y-137335910D01*
X124798559Y-137335910D01*
G37*
X124798559Y-137335910D02*
X124760795Y-137391179D01*
X124711673Y-137440301D01*
X124687720Y-137498128D01*
X124653569Y-137548110D01*
X124640706Y-137611631D01*
X124615000Y-137673690D01*
X124615000Y-137738569D01*
X124602560Y-137800000D01*
X124602560Y-141200000D01*
X124615000Y-141266113D01*
X124615000Y-141326310D01*
X124635755Y-141376418D01*
X124646838Y-141435317D01*
X124684207Y-141493390D01*
X124711673Y-141559699D01*
X124754315Y-141602340D01*
X124785910Y-141651441D01*
X124805788Y-141665023D01*
X119568097Y-141665023D01*
X119510021Y-141373057D01*
X119296500Y-141053500D01*
X118976943Y-140839979D01*
X118600000Y-140765000D01*
X116260842Y-140765000D01*
X116334838Y-140586799D01*
X116335162Y-140214833D01*
X116193117Y-139871057D01*
X115930327Y-139607808D01*
X115586799Y-139465162D01*
X115297440Y-139464910D01*
X115297440Y-138332509D01*
X115310012Y-138335010D01*
X119799990Y-138335010D01*
X120234336Y-138248613D01*
X120602556Y-138002576D01*
X121270132Y-137335000D01*
X124799973Y-137335000D01*
X124798559Y-137335910D01*
G36*
X132748559Y-137335910D02*
X132710795Y-137391179D01*
X132661673Y-137440301D01*
X132637720Y-137498128D01*
X132603569Y-137548110D01*
X132590706Y-137611631D01*
X132565000Y-137673690D01*
X132565000Y-137738569D01*
X132552560Y-137800000D01*
X132552560Y-141200000D01*
X132565000Y-141266113D01*
X132565000Y-141326310D01*
X132585755Y-141376418D01*
X132596838Y-141435317D01*
X132634207Y-141493390D01*
X132661673Y-141559699D01*
X132704315Y-141602340D01*
X132735910Y-141651441D01*
X132755788Y-141665023D01*
X128499991Y-141665023D01*
X128501441Y-141664090D01*
X128539205Y-141608821D01*
X128588327Y-141559699D01*
X128612280Y-141501872D01*
X128646431Y-141451890D01*
X128659294Y-141388369D01*
X128685000Y-141326310D01*
X128685000Y-141261431D01*
X128697440Y-141200000D01*
X128697440Y-137800000D01*
X128685000Y-137733887D01*
X128685000Y-137673690D01*
X128664245Y-137623582D01*
X128653162Y-137564683D01*
X128615793Y-137506610D01*
X128588327Y-137440301D01*
X128545685Y-137397660D01*
X128514090Y-137348559D01*
X128494246Y-137335000D01*
X132749973Y-137335000D01*
X132748559Y-137335910D01*
X132748559Y-137335910D01*
G37*
X132748559Y-137335910D02*
X132710795Y-137391179D01*
X132661673Y-137440301D01*
X132637720Y-137498128D01*
X132603569Y-137548110D01*
X132590706Y-137611631D01*
X132565000Y-137673690D01*
X132565000Y-137738569D01*
X132552560Y-137800000D01*
X132552560Y-141200000D01*
X132565000Y-141266113D01*
X132565000Y-141326310D01*
X132585755Y-141376418D01*
X132596838Y-141435317D01*
X132634207Y-141493390D01*
X132661673Y-141559699D01*
X132704315Y-141602340D01*
X132735910Y-141651441D01*
X132755788Y-141665023D01*
X128499991Y-141665023D01*
X128501441Y-141664090D01*
X128539205Y-141608821D01*
X128588327Y-141559699D01*
X128612280Y-141501872D01*
X128646431Y-141451890D01*
X128659294Y-141388369D01*
X128685000Y-141326310D01*
X128685000Y-141261431D01*
X128697440Y-141200000D01*
X128697440Y-137800000D01*
X128685000Y-137733887D01*
X128685000Y-137673690D01*
X128664245Y-137623582D01*
X128653162Y-137564683D01*
X128615793Y-137506610D01*
X128588327Y-137440301D01*
X128545685Y-137397660D01*
X128514090Y-137348559D01*
X128494246Y-137335000D01*
X132749973Y-137335000D01*
X132748559Y-137335910D01*
G36*
X141953788Y-141346788D02*
X141738091Y-141257222D01*
X141042527Y-140561659D01*
X140953714Y-140346714D01*
X141953788Y-141346788D01*
X141953788Y-141346788D01*
G37*
X141953788Y-141346788D02*
X141738091Y-141257222D01*
X141042527Y-140561659D01*
X140953714Y-140346714D01*
X141953788Y-141346788D01*
G36*
X111202560Y-140865001D02*
X106099999Y-140865001D01*
X105697440Y-140945075D01*
X105697440Y-138135000D01*
X111202560Y-138135000D01*
X111202560Y-140865001D01*
X111202560Y-140865001D01*
G37*
X111202560Y-140865001D02*
X106099999Y-140865001D01*
X105697440Y-140945075D01*
X105697440Y-138135000D01*
X111202560Y-138135000D01*
X111202560Y-140865001D01*
G36*
X138311751Y-134683117D02*
X138292234Y-134585000D01*
X138409868Y-134585000D01*
X138311751Y-134683117D01*
X138311751Y-134683117D01*
G37*
X138311751Y-134683117D02*
X138292234Y-134585000D01*
X138409868Y-134585000D01*
X138311751Y-134683117D01*
G36*
X108843880Y-124843880D02*
X108489457Y-125374313D01*
X108365000Y-126000000D01*
X108365000Y-127599995D01*
X108364999Y-127600000D01*
X108489457Y-128225688D01*
X108843880Y-128756120D01*
X111102560Y-131014800D01*
X111102560Y-132400000D01*
X111146838Y-132635317D01*
X111285910Y-132851441D01*
X111498110Y-132996431D01*
X111615000Y-133020102D01*
X111615000Y-134065000D01*
X99799998Y-134065000D01*
X99734988Y-134077931D01*
X99734988Y-133820144D01*
X101902560Y-131652572D01*
X101902560Y-132400000D01*
X101946838Y-132635317D01*
X102085910Y-132851441D01*
X102298110Y-132996431D01*
X102550000Y-133047440D01*
X105050000Y-133047440D01*
X105285317Y-133003162D01*
X105501441Y-132864090D01*
X105646431Y-132651890D01*
X105697440Y-132400000D01*
X105697440Y-130814800D01*
X107756120Y-128756120D01*
X108110543Y-128225688D01*
X108235001Y-127600000D01*
X108235000Y-127599995D01*
X108235000Y-126000000D01*
X108110543Y-125374313D01*
X107756120Y-124843880D01*
X107668000Y-124785000D01*
X108932000Y-124785000D01*
X108843880Y-124843880D01*
X108843880Y-124843880D01*
G37*
X108843880Y-124843880D02*
X108489457Y-125374313D01*
X108365000Y-126000000D01*
X108365000Y-127599995D01*
X108364999Y-127600000D01*
X108489457Y-128225688D01*
X108843880Y-128756120D01*
X111102560Y-131014800D01*
X111102560Y-132400000D01*
X111146838Y-132635317D01*
X111285910Y-132851441D01*
X111498110Y-132996431D01*
X111615000Y-133020102D01*
X111615000Y-134065000D01*
X99799998Y-134065000D01*
X99734988Y-134077931D01*
X99734988Y-133820144D01*
X101902560Y-131652572D01*
X101902560Y-132400000D01*
X101946838Y-132635317D01*
X102085910Y-132851441D01*
X102298110Y-132996431D01*
X102550000Y-133047440D01*
X105050000Y-133047440D01*
X105285317Y-133003162D01*
X105501441Y-132864090D01*
X105646431Y-132651890D01*
X105697440Y-132400000D01*
X105697440Y-130814800D01*
X107756120Y-128756120D01*
X108110543Y-128225688D01*
X108235001Y-127600000D01*
X108235000Y-127599995D01*
X108235000Y-126000000D01*
X108110543Y-125374313D01*
X107756120Y-124843880D01*
X107668000Y-124785000D01*
X108932000Y-124785000D01*
X108843880Y-124843880D01*
G36*
X115415000Y-126573686D02*
X115415000Y-132200000D01*
X115520427Y-132730017D01*
X115800153Y-133148657D01*
X115820657Y-133179343D01*
X116521849Y-133880535D01*
X116165654Y-133951387D01*
X115995620Y-134065000D01*
X114385000Y-134065000D01*
X114385000Y-133022038D01*
X114485317Y-133003162D01*
X114701441Y-132864090D01*
X114846431Y-132651890D01*
X114897440Y-132400000D01*
X114897440Y-128400000D01*
X114853162Y-128164683D01*
X114714090Y-127948559D01*
X114501890Y-127803569D01*
X114250000Y-127752560D01*
X112464800Y-127752560D01*
X111636745Y-126924505D01*
X111750000Y-126947440D01*
X114250000Y-126947440D01*
X114485317Y-126903162D01*
X114701441Y-126764090D01*
X114846431Y-126551890D01*
X114897440Y-126300000D01*
X114897440Y-126056126D01*
X115415000Y-126573686D01*
X115415000Y-126573686D01*
G37*
X115415000Y-126573686D02*
X115415000Y-132200000D01*
X115520427Y-132730017D01*
X115800153Y-133148657D01*
X115820657Y-133179343D01*
X116521849Y-133880535D01*
X116165654Y-133951387D01*
X115995620Y-134065000D01*
X114385000Y-134065000D01*
X114385000Y-133022038D01*
X114485317Y-133003162D01*
X114701441Y-132864090D01*
X114846431Y-132651890D01*
X114897440Y-132400000D01*
X114897440Y-128400000D01*
X114853162Y-128164683D01*
X114714090Y-127948559D01*
X114501890Y-127803569D01*
X114250000Y-127752560D01*
X112464800Y-127752560D01*
X111636745Y-126924505D01*
X111750000Y-126947440D01*
X114250000Y-126947440D01*
X114485317Y-126903162D01*
X114701441Y-126764090D01*
X114846431Y-126551890D01*
X114897440Y-126300000D01*
X114897440Y-126056126D01*
X115415000Y-126573686D01*
G36*
X101902560Y-126300000D02*
X101946838Y-126535317D01*
X102085910Y-126751441D01*
X102298110Y-126896431D01*
X102550000Y-126947440D01*
X104940320Y-126947440D01*
X104135200Y-127752560D01*
X102550000Y-127752560D01*
X102314683Y-127796838D01*
X102098559Y-127935910D01*
X101953569Y-128148110D01*
X101902560Y-128400000D01*
X101902560Y-129265000D01*
X101550000Y-129265000D01*
X101115654Y-129351397D01*
X100757910Y-129590434D01*
X100747434Y-129597434D01*
X98185000Y-132159868D01*
X98185000Y-129123686D01*
X98800000Y-128508686D01*
X99070657Y-128779343D01*
X99519984Y-129079573D01*
X100050000Y-129185000D01*
X100580016Y-129079573D01*
X101029343Y-128779343D01*
X101329573Y-128330016D01*
X101435000Y-127800000D01*
X101329573Y-127269984D01*
X101029343Y-126820657D01*
X100758686Y-126550000D01*
X101623686Y-125685000D01*
X101902560Y-125685000D01*
X101902560Y-126300000D01*
X101902560Y-126300000D01*
G37*
X101902560Y-126300000D02*
X101946838Y-126535317D01*
X102085910Y-126751441D01*
X102298110Y-126896431D01*
X102550000Y-126947440D01*
X104940320Y-126947440D01*
X104135200Y-127752560D01*
X102550000Y-127752560D01*
X102314683Y-127796838D01*
X102098559Y-127935910D01*
X101953569Y-128148110D01*
X101902560Y-128400000D01*
X101902560Y-129265000D01*
X101550000Y-129265000D01*
X101115654Y-129351397D01*
X100757910Y-129590434D01*
X100747434Y-129597434D01*
X98185000Y-132159868D01*
X98185000Y-129123686D01*
X98800000Y-128508686D01*
X99070657Y-128779343D01*
X99519984Y-129079573D01*
X100050000Y-129185000D01*
X100580016Y-129079573D01*
X101029343Y-128779343D01*
X101329573Y-128330016D01*
X101435000Y-127800000D01*
X101329573Y-127269984D01*
X101029343Y-126820657D01*
X100758686Y-126550000D01*
X101623686Y-125685000D01*
X101902560Y-125685000D01*
X101902560Y-126300000D01*
G36*
X129915412Y-125241588D02*
X129141920Y-126015080D01*
X128755911Y-126014743D01*
X128209914Y-126240344D01*
X128050087Y-126399892D01*
X127892283Y-126241812D01*
X127784013Y-126196855D01*
X128795891Y-125184977D01*
X129779077Y-125184977D01*
X129915412Y-125241588D01*
X129915412Y-125241588D01*
G37*
X129915412Y-125241588D02*
X129141920Y-126015080D01*
X128755911Y-126014743D01*
X128209914Y-126240344D01*
X128050087Y-126399892D01*
X127892283Y-126241812D01*
X127784013Y-126196855D01*
X128795891Y-125184977D01*
X129779077Y-125184977D01*
X129915412Y-125241588D01*
G36*
X126504122Y-125115010D02*
X126185000Y-125115010D01*
X126185000Y-124408000D01*
X126558000Y-124035000D01*
X127584132Y-124035000D01*
X126504122Y-125115010D01*
X126504122Y-125115010D01*
G37*
X126504122Y-125115010D02*
X126185000Y-125115010D01*
X126185000Y-124408000D01*
X126558000Y-124035000D01*
X127584132Y-124035000D01*
X126504122Y-125115010D01*
G36*
X111102560Y-124808092D02*
X111068000Y-124785000D01*
X111102560Y-124785000D01*
X111102560Y-124808092D01*
X111102560Y-124808092D01*
G37*
X111102560Y-124808092D02*
X111068000Y-124785000D01*
X111102560Y-124785000D01*
X111102560Y-124808092D01*
G36*
X130889979Y-120576943D02*
X131103500Y-120896500D01*
X131415000Y-121104637D01*
X131415000Y-121960421D01*
X130848866Y-122526554D01*
X130730327Y-122407808D01*
X130386799Y-122265162D01*
X130014833Y-122264838D01*
X129772422Y-122365000D01*
X128928000Y-122365000D01*
X130861123Y-120431877D01*
X130889979Y-120576943D01*
X130889979Y-120576943D01*
G37*
X130889979Y-120576943D02*
X131103500Y-120896500D01*
X131415000Y-121104637D01*
X131415000Y-121960421D01*
X130848866Y-122526554D01*
X130730327Y-122407808D01*
X130386799Y-122265162D01*
X130014833Y-122264838D01*
X129772422Y-122365000D01*
X128928000Y-122365000D01*
X130861123Y-120431877D01*
X130889979Y-120576943D01*
G36*
X128703498Y-104703502D02*
X128489977Y-105023059D01*
X128414998Y-105400002D01*
X128414998Y-118000000D01*
X128489977Y-118376943D01*
X128703498Y-118696500D01*
X129023055Y-118910021D01*
X129399998Y-118985000D01*
X129552294Y-118954706D01*
X127003500Y-121503500D01*
X126985000Y-121531187D01*
X126985000Y-118830134D01*
X127602566Y-118212568D01*
X127848604Y-117844347D01*
X127935000Y-117410002D01*
X127935000Y-115589998D01*
X127923726Y-115533320D01*
X127848604Y-115155653D01*
X127602566Y-114787432D01*
X125235000Y-112419866D01*
X125235000Y-107696215D01*
X125247877Y-107676943D01*
X125322856Y-107300000D01*
X125247877Y-106923057D01*
X125034356Y-106603500D01*
X124714799Y-106389979D01*
X124435000Y-106334323D01*
X124435000Y-104647986D01*
X124447987Y-104634999D01*
X128772001Y-104634999D01*
X128703498Y-104703502D01*
X128703498Y-104703502D01*
G37*
X128703498Y-104703502D02*
X128489977Y-105023059D01*
X128414998Y-105400002D01*
X128414998Y-118000000D01*
X128489977Y-118376943D01*
X128703498Y-118696500D01*
X129023055Y-118910021D01*
X129399998Y-118985000D01*
X129552294Y-118954706D01*
X127003500Y-121503500D01*
X126985000Y-121531187D01*
X126985000Y-118830134D01*
X127602566Y-118212568D01*
X127848604Y-117844347D01*
X127935000Y-117410002D01*
X127935000Y-115589998D01*
X127923726Y-115533320D01*
X127848604Y-115155653D01*
X127602566Y-114787432D01*
X125235000Y-112419866D01*
X125235000Y-107696215D01*
X125247877Y-107676943D01*
X125322856Y-107300000D01*
X125247877Y-106923057D01*
X125034356Y-106603500D01*
X124714799Y-106389979D01*
X124435000Y-106334323D01*
X124435000Y-104647986D01*
X124447987Y-104634999D01*
X128772001Y-104634999D01*
X128703498Y-104703502D01*
G36*
X146115328Y-109323405D02*
X146114674Y-110073305D01*
X146401043Y-110766372D01*
X146930839Y-111297093D01*
X147623405Y-111584672D01*
X147926250Y-111584936D01*
X148815001Y-112473687D01*
X148815001Y-112493633D01*
X148698769Y-112449107D01*
X148376595Y-112315328D01*
X148349495Y-112315304D01*
X148324194Y-112305612D01*
X147975540Y-112314978D01*
X147626695Y-112314674D01*
X147601650Y-112325022D01*
X147574565Y-112325750D01*
X146975533Y-112573877D01*
X146970214Y-112585926D01*
X146933628Y-112601043D01*
X146402907Y-113130839D01*
X146386698Y-113169873D01*
X146373877Y-113175533D01*
X146249107Y-113501231D01*
X146115328Y-113823405D01*
X146115304Y-113850505D01*
X146105612Y-113875806D01*
X146114978Y-114224460D01*
X146114674Y-114573305D01*
X146125022Y-114598350D01*
X146125750Y-114625435D01*
X146373877Y-115224467D01*
X146385926Y-115229786D01*
X146401043Y-115266372D01*
X146930839Y-115797093D01*
X146969873Y-115813302D01*
X146975533Y-115826123D01*
X147301231Y-115950893D01*
X147623405Y-116084672D01*
X147650505Y-116084696D01*
X147675806Y-116094388D01*
X148024460Y-116085022D01*
X148373305Y-116085326D01*
X148398350Y-116074978D01*
X148425435Y-116074250D01*
X148815001Y-115912887D01*
X148815001Y-117297370D01*
X148376595Y-117115328D01*
X147719887Y-117114755D01*
X146085001Y-115479869D01*
X146085001Y-109800000D01*
X145998604Y-109365654D01*
X145752567Y-108997434D01*
X145384347Y-108751397D01*
X145272063Y-108729062D01*
X145253001Y-108710000D01*
X146370036Y-108710000D01*
X146115328Y-109323405D01*
X146115328Y-109323405D01*
G37*
X146115328Y-109323405D02*
X146114674Y-110073305D01*
X146401043Y-110766372D01*
X146930839Y-111297093D01*
X147623405Y-111584672D01*
X147926250Y-111584936D01*
X148815001Y-112473687D01*
X148815001Y-112493633D01*
X148698769Y-112449107D01*
X148376595Y-112315328D01*
X148349495Y-112315304D01*
X148324194Y-112305612D01*
X147975540Y-112314978D01*
X147626695Y-112314674D01*
X147601650Y-112325022D01*
X147574565Y-112325750D01*
X146975533Y-112573877D01*
X146970214Y-112585926D01*
X146933628Y-112601043D01*
X146402907Y-113130839D01*
X146386698Y-113169873D01*
X146373877Y-113175533D01*
X146249107Y-113501231D01*
X146115328Y-113823405D01*
X146115304Y-113850505D01*
X146105612Y-113875806D01*
X146114978Y-114224460D01*
X146114674Y-114573305D01*
X146125022Y-114598350D01*
X146125750Y-114625435D01*
X146373877Y-115224467D01*
X146385926Y-115229786D01*
X146401043Y-115266372D01*
X146930839Y-115797093D01*
X146969873Y-115813302D01*
X146975533Y-115826123D01*
X147301231Y-115950893D01*
X147623405Y-116084672D01*
X147650505Y-116084696D01*
X147675806Y-116094388D01*
X148024460Y-116085022D01*
X148373305Y-116085326D01*
X148398350Y-116074978D01*
X148425435Y-116074250D01*
X148815001Y-115912887D01*
X148815001Y-117297370D01*
X148376595Y-117115328D01*
X147719887Y-117114755D01*
X146085001Y-115479869D01*
X146085001Y-109800000D01*
X145998604Y-109365654D01*
X145752567Y-108997434D01*
X145384347Y-108751397D01*
X145272063Y-108729062D01*
X145253001Y-108710000D01*
X146370036Y-108710000D01*
X146115328Y-109323405D01*
G36*
X125665000Y-116060130D02*
X125665000Y-116939870D01*
X125397440Y-117207430D01*
X125397440Y-115792570D01*
X125665000Y-116060130D01*
X125665000Y-116060130D01*
G37*
X125665000Y-116060130D02*
X125665000Y-116939870D01*
X125397440Y-117207430D01*
X125397440Y-115792570D01*
X125665000Y-116060130D01*
G36*
X116852560Y-115500000D02*
X116896838Y-115735317D01*
X116949212Y-115816709D01*
X116631629Y-115947932D01*
X116229677Y-116349182D01*
X115830643Y-115949449D01*
X115572132Y-115842106D01*
X116029238Y-115385000D01*
X116852560Y-115385000D01*
X116852560Y-115500000D01*
X116852560Y-115500000D01*
G37*
X116852560Y-115500000D02*
X116896838Y-115735317D01*
X116949212Y-115816709D01*
X116631629Y-115947932D01*
X116229677Y-116349182D01*
X115830643Y-115949449D01*
X115572132Y-115842106D01*
X116029238Y-115385000D01*
X116852560Y-115385000D01*
X116852560Y-115500000D01*
G36*
X141114978Y-114224460D02*
X141114870Y-114348870D01*
X140969161Y-114202907D01*
X140963002Y-114200350D01*
X140966372Y-114198957D01*
X141110430Y-114055150D01*
X141114978Y-114224460D01*
X141114978Y-114224460D01*
G37*
X141114978Y-114224460D02*
X141114870Y-114348870D01*
X140969161Y-114202907D01*
X140963002Y-114200350D01*
X140966372Y-114198957D01*
X141110430Y-114055150D01*
X141114978Y-114224460D01*
G36*
X141930839Y-112197093D02*
X142407416Y-112394985D01*
X141975533Y-112573877D01*
X141970214Y-112585926D01*
X141933628Y-112601043D01*
X141789570Y-112744850D01*
X141785022Y-112575540D01*
X141785326Y-112226695D01*
X141774978Y-112201650D01*
X141774250Y-112174565D01*
X141679144Y-111944958D01*
X141930839Y-112197093D01*
X141930839Y-112197093D01*
G37*
X141930839Y-112197093D02*
X142407416Y-112394985D01*
X141975533Y-112573877D01*
X141970214Y-112585926D01*
X141933628Y-112601043D01*
X141789570Y-112744850D01*
X141785022Y-112575540D01*
X141785326Y-112226695D01*
X141774978Y-112201650D01*
X141774250Y-112174565D01*
X141679144Y-111944958D01*
X141930839Y-112197093D01*
G36*
X143815001Y-112493633D02*
X143698769Y-112449107D01*
X143580160Y-112399856D01*
X143815001Y-112302821D01*
X143815001Y-112493633D01*
X143815001Y-112493633D01*
G37*
X143815001Y-112493633D02*
X143698769Y-112449107D01*
X143580160Y-112399856D01*
X143815001Y-112302821D01*
X143815001Y-112493633D01*
G36*
X151290000Y-110294092D02*
X151290000Y-111086266D01*
X151179344Y-110920658D01*
X149885065Y-109626379D01*
X149885326Y-109326695D01*
X149630513Y-108710000D01*
X149705908Y-108710000D01*
X151290000Y-110294092D01*
X151290000Y-110294092D01*
G37*
X151290000Y-110294092D02*
X151290000Y-111086266D01*
X151179344Y-110920658D01*
X149885065Y-109626379D01*
X149885326Y-109326695D01*
X149630513Y-108710000D01*
X149705908Y-108710000D01*
X151290000Y-110294092D01*
M02*
