G04 #@! TF.FileFunction,Soldermask,Bot*
%FSLAX46Y46*%
G04 Gerber Fmt 4.6, Leading zero omitted, Abs format (unit mm)*
G04 Created by KiCad (PCBNEW 4.0.7) date 07/07/19 20:21:31*
%MOMM*%
%LPD*%
G01*
G04 APERTURE LIST*
%ADD10C,0.100000*%
%ADD11C,2.500000*%
%ADD12C,2.600000*%
%ADD13C,2.200000*%
%ADD14R,3.900000X3.900000*%
%ADD15C,2.900000*%
%ADD16R,1.200000X2.300000*%
%ADD17C,2.100000*%
%ADD18R,3.200000X3.800000*%
%ADD19C,3.400000*%
%ADD20R,1.400000X1.650000*%
%ADD21R,1.650000X1.400000*%
%ADD22R,1.700000X1.100000*%
%ADD23R,1.100000X1.700000*%
%ADD24R,1.950000X1.000000*%
%ADD25R,1.000000X1.950000*%
%ADD26R,1.300000X1.200000*%
%ADD27R,1.200000X1.300000*%
%ADD28R,1.900000X1.900000*%
G04 APERTURE END LIST*
D10*
D11*
X110200000Y-152200000D03*
D12*
X109500000Y-147500000D03*
X129500000Y-147500000D03*
D13*
X117500000Y-117250000D03*
X114960000Y-117250000D03*
D14*
X119250000Y-113750000D03*
X119250000Y-107750000D03*
X114550000Y-110750000D03*
D15*
X148000000Y-131300000D03*
X148000000Y-126500000D03*
X148000000Y-122000000D03*
X143000000Y-122900000D03*
X139900000Y-124900000D03*
X139900000Y-128100000D03*
X143000000Y-126500000D03*
X148000000Y-119000000D03*
X148000000Y-114200000D03*
X148000000Y-109700000D03*
X143000000Y-110600000D03*
X139900000Y-112600000D03*
X139900000Y-115800000D03*
X143000000Y-114200000D03*
D16*
X100550000Y-116250000D03*
X98650000Y-116250000D03*
X99600000Y-113250000D03*
D17*
X131050000Y-127500000D03*
X133050000Y-127500000D03*
X135050000Y-127500000D03*
X129050000Y-127500000D03*
X127050000Y-127500000D03*
X125050000Y-127500000D03*
D18*
X136750000Y-116500000D03*
X123350000Y-116500000D03*
D19*
X91500000Y-120200000D03*
X91500000Y-115500000D03*
X91500000Y-110800000D03*
D20*
X97000000Y-152900000D03*
X99000000Y-152900000D03*
X120000000Y-152800000D03*
X122000000Y-152800000D03*
D21*
X121000000Y-147500000D03*
X121000000Y-145500000D03*
X102000000Y-154700000D03*
X102000000Y-152700000D03*
X142500000Y-147400000D03*
X142500000Y-145400000D03*
X125000000Y-154550000D03*
X125000000Y-152550000D03*
X112500000Y-149750000D03*
X112500000Y-147750000D03*
X134000000Y-150750000D03*
X134000000Y-148750000D03*
D20*
X94400000Y-138800000D03*
X96400000Y-138800000D03*
X138850000Y-143900000D03*
X136850000Y-143900000D03*
X145500000Y-142650000D03*
X147500000Y-142650000D03*
X119600000Y-136400000D03*
X117600000Y-136400000D03*
X129400000Y-119200000D03*
X131400000Y-119200000D03*
X139400000Y-136400000D03*
X137400000Y-136400000D03*
D22*
X137250000Y-125650000D03*
X137250000Y-123750000D03*
X143000000Y-129750000D03*
X143000000Y-131650000D03*
D23*
X114500000Y-146050000D03*
X112600000Y-146050000D03*
D22*
X119000000Y-145500000D03*
X119000000Y-147400000D03*
D23*
X125000000Y-148450000D03*
X126900000Y-148450000D03*
D22*
X117000000Y-145600000D03*
X117000000Y-147500000D03*
D23*
X99900000Y-118750000D03*
X101800000Y-118750000D03*
X96650000Y-114500000D03*
X94750000Y-114500000D03*
D24*
X99650000Y-140730000D03*
X99650000Y-142000000D03*
X99650000Y-143270000D03*
X99650000Y-144540000D03*
X94250000Y-144540000D03*
X94250000Y-143270000D03*
X94250000Y-142000000D03*
X94250000Y-140730000D03*
X117250000Y-142020000D03*
X117250000Y-140750000D03*
X117250000Y-139480000D03*
X117250000Y-138210000D03*
X122650000Y-138210000D03*
X122650000Y-139480000D03*
X122650000Y-140750000D03*
X122650000Y-142020000D03*
X138100000Y-142020000D03*
X138100000Y-140750000D03*
X138100000Y-139480000D03*
X138100000Y-138210000D03*
X143500000Y-138210000D03*
X143500000Y-139480000D03*
X143500000Y-140750000D03*
X143500000Y-142020000D03*
X131600000Y-121260000D03*
X131600000Y-122530000D03*
X131600000Y-123800000D03*
X131600000Y-125070000D03*
X126200000Y-125070000D03*
X126200000Y-123800000D03*
X126200000Y-122530000D03*
X126200000Y-121260000D03*
D22*
X139950000Y-108600000D03*
X139950000Y-106700000D03*
X122750000Y-110050000D03*
X122750000Y-108150000D03*
D25*
X89860000Y-129450000D03*
X91130000Y-129450000D03*
X92400000Y-129450000D03*
X93670000Y-129450000D03*
X93670000Y-134850000D03*
X92400000Y-134850000D03*
X91130000Y-134850000D03*
X89860000Y-134850000D03*
D24*
X128658510Y-109454136D03*
X128658510Y-108184136D03*
X128658510Y-106914136D03*
X128658510Y-105644136D03*
X134058510Y-105644136D03*
X134058510Y-106914136D03*
X134058510Y-108184136D03*
X134058510Y-109454136D03*
D12*
X140500000Y-102500000D03*
D11*
X107600000Y-152200000D03*
D17*
X97950000Y-150500000D03*
X99950000Y-150500000D03*
X101950000Y-150500000D03*
X95950000Y-150500000D03*
X93950000Y-150500000D03*
X91950000Y-150500000D03*
D18*
X103650000Y-139500000D03*
X90250000Y-139500000D03*
D17*
X120950000Y-150500000D03*
X122950000Y-150500000D03*
X124950000Y-150500000D03*
X118950000Y-150500000D03*
X116950000Y-150500000D03*
X114950000Y-150500000D03*
D18*
X126650000Y-139500000D03*
X113250000Y-139500000D03*
D17*
X142300000Y-150500000D03*
X144300000Y-150500000D03*
X146300000Y-150500000D03*
X140300000Y-150500000D03*
X138300000Y-150500000D03*
X136300000Y-150500000D03*
D18*
X148000000Y-139500000D03*
X134600000Y-139500000D03*
D20*
X130800000Y-103900000D03*
X128800000Y-103900000D03*
D21*
X95300000Y-133250000D03*
X95300000Y-131250000D03*
D20*
X98900000Y-146500000D03*
X100900000Y-146500000D03*
D21*
X92200000Y-144900000D03*
X92200000Y-142900000D03*
D20*
X119000000Y-143800000D03*
X121000000Y-143800000D03*
X124600000Y-142800000D03*
X126600000Y-142800000D03*
X97200000Y-148400000D03*
X95200000Y-148400000D03*
X91000000Y-148500000D03*
X93000000Y-148500000D03*
X129000000Y-129900000D03*
X131000000Y-129900000D03*
X127300000Y-129900000D03*
X125300000Y-129900000D03*
D21*
X138100000Y-108850000D03*
X138100000Y-106850000D03*
X124600000Y-110350000D03*
X124600000Y-108350000D03*
D26*
X94820000Y-112700000D03*
X94820000Y-110800000D03*
X96820000Y-111750000D03*
D27*
X97750000Y-109420000D03*
X95850000Y-109420000D03*
X96800000Y-107420000D03*
D23*
X133700000Y-145900000D03*
X131800000Y-145900000D03*
X146500000Y-146500000D03*
X148400000Y-146500000D03*
D22*
X140250000Y-145400000D03*
X140250000Y-147300000D03*
X137750000Y-145400000D03*
X137750000Y-147300000D03*
X102750000Y-145700000D03*
X102750000Y-143800000D03*
X105600000Y-148800000D03*
X105600000Y-146900000D03*
D23*
X97000000Y-146500000D03*
X95100000Y-146500000D03*
X91050000Y-146700000D03*
X92950000Y-146700000D03*
D22*
X101650000Y-112900000D03*
X101650000Y-111000000D03*
D23*
X133700000Y-144000000D03*
X131800000Y-144000000D03*
X146500000Y-144550000D03*
X148400000Y-144550000D03*
D22*
X135200000Y-145400000D03*
X135200000Y-143500000D03*
X95400000Y-118800000D03*
X95400000Y-120700000D03*
D23*
X141450000Y-143800000D03*
X143350000Y-143800000D03*
X114550000Y-144200000D03*
X112650000Y-144200000D03*
X125000000Y-146500000D03*
X126900000Y-146500000D03*
X89950000Y-127500000D03*
X91850000Y-127500000D03*
D22*
X95600000Y-127900000D03*
X95600000Y-129800000D03*
D23*
X112650000Y-142300000D03*
X114550000Y-142300000D03*
X124450000Y-144650000D03*
X126350000Y-144650000D03*
X91350000Y-125650000D03*
X89450000Y-125650000D03*
X128500000Y-114200000D03*
X130400000Y-114200000D03*
X128500000Y-116950000D03*
X130400000Y-116950000D03*
D22*
X136258510Y-108621992D03*
X136258510Y-106721992D03*
X126458510Y-110084136D03*
X126458510Y-108184136D03*
X106654424Y-141400000D03*
X106654424Y-143300000D03*
X89360040Y-145600000D03*
X89360040Y-147500000D03*
X89360040Y-142400000D03*
X89360040Y-144300000D03*
X106654424Y-138200000D03*
X106654424Y-140100000D03*
D28*
X89400000Y-123400000D03*
X93600000Y-123400000D03*
M02*
