G04 #@! TF.FileFunction,Soldermask,Top*
%FSLAX46Y46*%
G04 Gerber Fmt 4.6, Leading zero omitted, Abs format (unit mm)*
G04 Created by KiCad (PCBNEW 4.0.7) date 07/07/19 20:21:31*
%MOMM*%
%LPD*%
G01*
G04 APERTURE LIST*
%ADD10C,0.100000*%
%ADD11C,2.500000*%
%ADD12C,2.600000*%
%ADD13C,2.200000*%
%ADD14R,2.900000X4.400000*%
%ADD15R,3.900000X3.900000*%
%ADD16C,2.900000*%
%ADD17C,2.100000*%
%ADD18R,3.200000X3.800000*%
%ADD19C,3.400000*%
G04 APERTURE END LIST*
D10*
D11*
X110200000Y-152200000D03*
D12*
X109500000Y-147500000D03*
X129500000Y-147500000D03*
D13*
X117500000Y-117250000D03*
X114960000Y-117250000D03*
D14*
X113000000Y-124300000D03*
X113000000Y-130400000D03*
X103800000Y-130400000D03*
X103800000Y-124300000D03*
D15*
X119250000Y-113750000D03*
X119250000Y-107750000D03*
X114550000Y-110750000D03*
D16*
X148000000Y-131300000D03*
X148000000Y-126500000D03*
X148000000Y-122000000D03*
X143000000Y-122900000D03*
X139900000Y-124900000D03*
X139900000Y-128100000D03*
X143000000Y-126500000D03*
X148000000Y-119000000D03*
X148000000Y-114200000D03*
X148000000Y-109700000D03*
X143000000Y-110600000D03*
X139900000Y-112600000D03*
X139900000Y-115800000D03*
X143000000Y-114200000D03*
D17*
X131050000Y-127500000D03*
X133050000Y-127500000D03*
X135050000Y-127500000D03*
X129050000Y-127500000D03*
X127050000Y-127500000D03*
X125050000Y-127500000D03*
D18*
X136750000Y-116500000D03*
X123350000Y-116500000D03*
D19*
X91500000Y-120200000D03*
X91500000Y-115500000D03*
X91500000Y-110800000D03*
D12*
X140500000Y-102500000D03*
D11*
X107600000Y-152200000D03*
D17*
X97950000Y-150500000D03*
X99950000Y-150500000D03*
X101950000Y-150500000D03*
X95950000Y-150500000D03*
X93950000Y-150500000D03*
X91950000Y-150500000D03*
D18*
X103650000Y-139500000D03*
X90250000Y-139500000D03*
D17*
X120950000Y-150500000D03*
X122950000Y-150500000D03*
X124950000Y-150500000D03*
X118950000Y-150500000D03*
X116950000Y-150500000D03*
X114950000Y-150500000D03*
D18*
X126650000Y-139500000D03*
X113250000Y-139500000D03*
D17*
X142300000Y-150500000D03*
X144300000Y-150500000D03*
X146300000Y-150500000D03*
X140300000Y-150500000D03*
X138300000Y-150500000D03*
X136300000Y-150500000D03*
D18*
X148000000Y-139500000D03*
X134600000Y-139500000D03*
M02*
